<?xml version="1.0" encoding="UTF-8" standalone="no"?>
<!DOCTYPE svg PUBLIC "-//W3C//DTD SVG 1.1//EN"
 "http://www.w3.org/Graphics/SVG/1.1/DTD/svg11.dtd">
<!-- Generated by graphviz version 13.1.0 (20250701.0955)
 -->
<!-- Title: ssd1309_advance_init Pages: 1 -->
<svg width="318pt" height="1822pt"
 viewBox="0.00 0.00 318.00 1822.00" xmlns="http://www.w3.org/2000/svg" xmlns:xlink="http://www.w3.org/1999/xlink">
<g id="graph0" class="graph" transform="scale(1 1) rotate(0) translate(4 1818)">
<title>ssd1309_advance_init</title>
<!-- Node1 -->
<g id="Node000001" class="node">
<title>Node1</title>
<g id="a_Node000001"><a xlink:title="advance example init">
<polygon fill="#999999" stroke="#666666" points="112.75,-917 0,-917 0,-897 112.75,-897 112.75,-917"/>
<text xml:space="preserve" text-anchor="middle" x="56.38" y="-903.5" font-family="Helvetica,sans-Serif" font-size="10.00">ssd1309_advance_init</text>
</a>
</g>
</g>
<!-- Node2 -->
<g id="Node000002" class="node">
<title>Node2</title>
<g id="a_Node000002"><a xlink:href="group__ssd1309__base__driver.html#gae0f1bf5a14786a749edbf2e747dc82c2" target="_top" xlink:title="clear the screen">
<polygon fill="white" stroke="#666666" points="269,-1814 190,-1814 190,-1794 269,-1794 269,-1814"/>
<text xml:space="preserve" text-anchor="middle" x="229.5" y="-1800.5" font-family="Helvetica,sans-Serif" font-size="10.00">ssd1309_clear</text>
</a>
</g>
</g>
<!-- Node1&#45;&gt;Node2 -->
<g id="edge1_Node000001_Node000002" class="edge">
<title>Node1&#45;&gt;Node2</title>
<g id="a_edge1_Node000001_Node000002"><a xlink:title=" ">
<path fill="none" stroke="#63b8ff" d="M57.74,-917.49C61.14,-1012.07 88.41,-1716.25 148.75,-1785 156.35,-1793.67 167.13,-1798.75 178.31,-1801.65"/>
<polygon fill="#63b8ff" stroke="#63b8ff" points="177.55,-1805.07 188.04,-1803.58 178.91,-1798.2 177.55,-1805.07"/>
</a>
</g>
</g>
<!-- Node3 -->
<g id="Node000003" class="node">
<title>Node3</title>
<g id="a_Node000003"><a xlink:href="group__ssd1309__base__driver.html#ga09d6738ceb0c6e5eab7845ccdc1edcbc" target="_top" xlink:title="deactivate the scroll">
<polygon fill="white" stroke="#666666" points="281,-1776 178,-1776 178,-1744 281,-1744 281,-1776"/>
<text xml:space="preserve" text-anchor="start" x="186" y="-1762.5" font-family="Helvetica,sans-Serif" font-size="10.00">ssd1309_deactivate</text>
<text xml:space="preserve" text-anchor="middle" x="229.5" y="-1750.5" font-family="Helvetica,sans-Serif" font-size="10.00">_scroll</text>
</a>
</g>
</g>
<!-- Node1&#45;&gt;Node3 -->
<g id="edge2_Node000001_Node000003" class="edge">
<title>Node1&#45;&gt;Node3</title>
<g id="a_edge2_Node000001_Node000003"><a xlink:title=" ">
<path fill="none" stroke="#63b8ff" d="M57.84,-917.43C62.02,-1008.62 94.02,-1668.48 148.75,-1735 153.71,-1741.02 160.1,-1745.62 167.1,-1749.12"/>
<polygon fill="#63b8ff" stroke="#63b8ff" points="165.73,-1752.34 176.31,-1752.93 168.4,-1745.87 165.73,-1752.34"/>
</a>
</g>
</g>
<!-- Node4 -->
<g id="Node000004" class="node">
<title>Node4</title>
<g id="a_Node000004"><a xlink:href="group__ssd1309__base__driver.html#ga18e7bcb6a35fc45dc9ef935c107e0161" target="_top" xlink:title="close the chip">
<polygon fill="white" stroke="#666666" points="270.12,-1726 188.88,-1726 188.88,-1706 270.12,-1706 270.12,-1726"/>
<text xml:space="preserve" text-anchor="middle" x="229.5" y="-1712.5" font-family="Helvetica,sans-Serif" font-size="10.00">ssd1309_deinit</text>
</a>
</g>
</g>
<!-- Node1&#45;&gt;Node4 -->
<g id="edge3_Node000001_Node000004" class="edge">
<title>Node1&#45;&gt;Node4</title>
<g id="a_edge3_Node000001_Node000004"><a xlink:title=" ">
<path fill="none" stroke="#63b8ff" d="M57.86,-917.26C62.1,-1005.55 94.21,-1635.57 148.75,-1697 156.26,-1705.46 166.8,-1710.5 177.76,-1713.43"/>
<polygon fill="#63b8ff" stroke="#63b8ff" points="176.78,-1716.8 187.28,-1715.39 178.19,-1709.94 176.78,-1716.8"/>
</a>
</g>
</g>
<!-- Node5 -->
<g id="Node000005" class="node">
<title>Node5</title>
<g id="a_Node000005"><a xlink:href="group__ssd1309__base__driver.html#ga47c2e3a521204ec8787577cc9ea5c3a0" target="_top" xlink:title="initialize the chip">
<polygon fill="white" stroke="#666666" points="264.88,-1688 194.12,-1688 194.12,-1668 264.88,-1668 264.88,-1688"/>
<text xml:space="preserve" text-anchor="middle" x="229.5" y="-1674.5" font-family="Helvetica,sans-Serif" font-size="10.00">ssd1309_init</text>
</a>
</g>
</g>
<!-- Node1&#45;&gt;Node5 -->
<g id="edge4_Node000001_Node000005" class="edge">
<title>Node1&#45;&gt;Node5</title>
<g id="a_edge4_Node000001_Node000005"><a xlink:title=" ">
<path fill="none" stroke="#63b8ff" d="M57.92,-917.3C62.59,-1003.34 96.74,-1600.75 148.75,-1659 157.4,-1668.69 170.02,-1673.88 182.68,-1676.56"/>
<polygon fill="#63b8ff" stroke="#63b8ff" points="181.79,-1679.96 192.22,-1678.07 182.89,-1673.05 181.79,-1679.96"/>
</a>
</g>
</g>
<!-- Node6 -->
<g id="Node000006" class="node">
<title>Node6</title>
<g id="a_Node000006"><a xlink:href="group__ssd1309__interface__driver.html#gab3935699d21c1034e9e1b78f11b4c279" target="_top" xlink:title="interface print format data">
<polygon fill="white" stroke="#666666" points="293,-1650 166,-1650 166,-1618 293,-1618 293,-1650"/>
<text xml:space="preserve" text-anchor="start" x="174" y="-1636.5" font-family="Helvetica,sans-Serif" font-size="10.00">ssd1309_interface_debug</text>
<text xml:space="preserve" text-anchor="middle" x="229.5" y="-1624.5" font-family="Helvetica,sans-Serif" font-size="10.00">_print</text>
</a>
</g>
</g>
<!-- Node1&#45;&gt;Node6 -->
<g id="edge5_Node000001_Node000006" class="edge">
<title>Node1&#45;&gt;Node6</title>
<g id="a_edge5_Node000001_Node000006"><a xlink:title=" ">
<path fill="none" stroke="#63b8ff" d="M57.25,-917.4C56.53,-996.11 55.62,-1498.03 148.75,-1609 151.01,-1611.69 153.55,-1614.1 156.31,-1616.25"/>
<polygon fill="#63b8ff" stroke="#63b8ff" points="154.16,-1619.03 164.47,-1621.47 157.93,-1613.13 154.16,-1619.03"/>
</a>
</g>
</g>
<!-- Node7 -->
<g id="Node000007" class="node">
<title>Node7</title>
<g id="a_Node000007"><a xlink:href="group__ssd1309__interface__driver.html#ga662fbc3cd06340ac767d3ed5494db55d" target="_top" xlink:title="interface delay ms">
<polygon fill="white" stroke="#666666" points="300.88,-1600 158.12,-1600 158.12,-1580 300.88,-1580 300.88,-1600"/>
<text xml:space="preserve" text-anchor="middle" x="229.5" y="-1586.5" font-family="Helvetica,sans-Serif" font-size="10.00">ssd1309_interface_delay_ms</text>
</a>
</g>
</g>
<!-- Node1&#45;&gt;Node7 -->
<g id="edge6_Node000001_Node000007" class="edge">
<title>Node1&#45;&gt;Node7</title>
<g id="a_edge6_Node000001_Node000007"><a xlink:title=" ">
<path fill="none" stroke="#63b8ff" d="M57.27,-917.14C56.68,-992.83 56.68,-1469.52 148.75,-1571 149.23,-1571.53 149.72,-1572.04 150.22,-1572.54"/>
<polygon fill="#63b8ff" stroke="#63b8ff" points="147.98,-1575.23 158.01,-1578.63 152.29,-1569.72 147.98,-1575.23"/>
</a>
</g>
</g>
<!-- Node8 -->
<g id="Node000008" class="node">
<title>Node8</title>
<g id="a_Node000008"><a xlink:href="group__ssd1309__interface__driver.html#ga71ec036ea3ab96e1d30e433effa27cbe" target="_top" xlink:title="interface iic bus deinit">
<polygon fill="white" stroke="#666666" points="284.75,-1562 174.25,-1562 174.25,-1530 284.75,-1530 284.75,-1562"/>
<text xml:space="preserve" text-anchor="start" x="182.25" y="-1548.5" font-family="Helvetica,sans-Serif" font-size="10.00">ssd1309_interface_iic</text>
<text xml:space="preserve" text-anchor="middle" x="229.5" y="-1536.5" font-family="Helvetica,sans-Serif" font-size="10.00">_deinit</text>
</a>
</g>
</g>
<!-- Node1&#45;&gt;Node8 -->
<g id="edge7_Node000001_Node000008" class="edge">
<title>Node1&#45;&gt;Node8</title>
<g id="a_edge7_Node000001_Node000008"><a xlink:title=" ">
<path fill="none" stroke="#63b8ff" d="M57.46,-917.23C58.29,-989.67 66.63,-1424.96 148.75,-1521 152.88,-1525.82 157.92,-1529.73 163.45,-1532.89"/>
<polygon fill="#63b8ff" stroke="#63b8ff" points="161.93,-1536.04 172.46,-1537.16 164.93,-1529.72 161.93,-1536.04"/>
</a>
</g>
</g>
<!-- Node9 -->
<g id="Node000009" class="node">
<title>Node9</title>
<g id="a_Node000009"><a xlink:href="group__ssd1309__interface__driver.html#ga215e6e29ceb2bbfc683ee21514e852f7" target="_top" xlink:title="interface iic bus init">
<polygon fill="white" stroke="#666666" points="293.75,-1512 165.25,-1512 165.25,-1492 293.75,-1492 293.75,-1512"/>
<text xml:space="preserve" text-anchor="middle" x="229.5" y="-1498.5" font-family="Helvetica,sans-Serif" font-size="10.00">ssd1309_interface_iic_init</text>
</a>
</g>
</g>
<!-- Node1&#45;&gt;Node9 -->
<g id="edge8_Node000001_Node000009" class="edge">
<title>Node1&#45;&gt;Node9</title>
<g id="a_edge8_Node000001_Node000009"><a xlink:title=" ">
<path fill="none" stroke="#63b8ff" d="M57.5,-917.11C58.57,-986.81 68.25,-1396.09 148.75,-1483 150.74,-1485.15 152.92,-1487.07 155.26,-1488.8"/>
<polygon fill="#63b8ff" stroke="#63b8ff" points="153.22,-1491.66 163.61,-1493.73 156.78,-1485.63 153.22,-1491.66"/>
</a>
</g>
</g>
<!-- Node10 -->
<g id="Node000010" class="node">
<title>Node10</title>
<g id="a_Node000010"><a xlink:href="group__ssd1309__interface__driver.html#gaa4c3a7f1ea29001192477afab6719611" target="_top" xlink:title="interface iic bus write">
<polygon fill="white" stroke="#666666" points="284.75,-1474 174.25,-1474 174.25,-1442 284.75,-1442 284.75,-1474"/>
<text xml:space="preserve" text-anchor="start" x="182.25" y="-1460.5" font-family="Helvetica,sans-Serif" font-size="10.00">ssd1309_interface_iic</text>
<text xml:space="preserve" text-anchor="middle" x="229.5" y="-1448.5" font-family="Helvetica,sans-Serif" font-size="10.00">_write</text>
</a>
</g>
</g>
<!-- Node1&#45;&gt;Node10 -->
<g id="edge9_Node000001_Node000010" class="edge">
<title>Node1&#45;&gt;Node10</title>
<g id="a_edge9_Node000001_Node000010"><a xlink:title=" ">
<path fill="none" stroke="#63b8ff" d="M57.75,-917.43C60.34,-984.26 77.74,-1351.96 148.75,-1433 152.93,-1437.77 158.02,-1441.65 163.57,-1444.79"/>
<polygon fill="#63b8ff" stroke="#63b8ff" points="162.07,-1447.95 172.61,-1449.04 165.05,-1441.62 162.07,-1447.95"/>
</a>
</g>
</g>
<!-- Node11 -->
<g id="Node000011" class="node">
<title>Node11</title>
<g id="a_Node000011"><a xlink:href="group__ssd1309__interface__driver.html#gaa4a2e63935daaef376d193a3fe231142" target="_top" xlink:title="interface reset gpio deinit">
<polygon fill="white" stroke="#666666" points="290.75,-1424 168.25,-1424 168.25,-1392 290.75,-1392 290.75,-1424"/>
<text xml:space="preserve" text-anchor="start" x="176.25" y="-1410.5" font-family="Helvetica,sans-Serif" font-size="10.00">ssd1309_interface_reset</text>
<text xml:space="preserve" text-anchor="middle" x="229.5" y="-1398.5" font-family="Helvetica,sans-Serif" font-size="10.00">_gpio_deinit</text>
</a>
</g>
</g>
<!-- Node1&#45;&gt;Node11 -->
<g id="edge10_Node000001_Node000011" class="edge">
<title>Node1&#45;&gt;Node11</title>
<g id="a_edge10_Node000001_Node000011"><a xlink:title=" ">
<path fill="none" stroke="#63b8ff" d="M57.94,-917.25C61.62,-979.84 83.92,-1310.31 148.75,-1383 151.57,-1386.16 154.79,-1388.93 158.27,-1391.35"/>
<polygon fill="#63b8ff" stroke="#63b8ff" points="156.31,-1394.26 166.72,-1396.22 159.81,-1388.2 156.31,-1394.26"/>
</a>
</g>
</g>
<!-- Node12 -->
<g id="Node000012" class="node">
<title>Node12</title>
<g id="a_Node000012"><a xlink:href="group__ssd1309__interface__driver.html#ga6cc7a643cab33d08674345487ab3a203" target="_top" xlink:title="interface reset gpio init">
<polygon fill="white" stroke="#666666" points="290.75,-1374 168.25,-1374 168.25,-1342 290.75,-1342 290.75,-1374"/>
<text xml:space="preserve" text-anchor="start" x="176.25" y="-1360.5" font-family="Helvetica,sans-Serif" font-size="10.00">ssd1309_interface_reset</text>
<text xml:space="preserve" text-anchor="middle" x="229.5" y="-1348.5" font-family="Helvetica,sans-Serif" font-size="10.00">_gpio_init</text>
</a>
</g>
</g>
<!-- Node1&#45;&gt;Node12 -->
<g id="edge11_Node000001_Node000012" class="edge">
<title>Node1&#45;&gt;Node12</title>
<g id="a_edge11_Node000001_Node000012"><a xlink:title=" ">
<path fill="none" stroke="#63b8ff" d="M58.2,-917.3C63.09,-976.08 90.15,-1268.71 148.75,-1333 151.47,-1335.99 154.54,-1338.62 157.86,-1340.94"/>
<polygon fill="#63b8ff" stroke="#63b8ff" points="156.04,-1343.93 166.45,-1345.92 159.56,-1337.88 156.04,-1343.93"/>
</a>
</g>
</g>
<!-- Node13 -->
<g id="Node000013" class="node">
<title>Node13</title>
<g id="a_Node000013"><a xlink:href="group__ssd1309__interface__driver.html#gaa966bab8de50a17ef65c45de12dbb3bc" target="_top" xlink:title="interface reset gpio write">
<polygon fill="white" stroke="#666666" points="290.75,-1324 168.25,-1324 168.25,-1292 290.75,-1292 290.75,-1324"/>
<text xml:space="preserve" text-anchor="start" x="176.25" y="-1310.5" font-family="Helvetica,sans-Serif" font-size="10.00">ssd1309_interface_reset</text>
<text xml:space="preserve" text-anchor="middle" x="229.5" y="-1298.5" font-family="Helvetica,sans-Serif" font-size="10.00">_gpio_write</text>
</a>
</g>
</g>
<!-- Node1&#45;&gt;Node13 -->
<g id="edge12_Node000001_Node000013" class="edge">
<title>Node1&#45;&gt;Node13</title>
<g id="a_edge12_Node000001_Node000013"><a xlink:title=" ">
<path fill="none" stroke="#63b8ff" d="M58.5,-917.15C64.68,-971.41 96.28,-1226.98 148.75,-1283 151.51,-1285.95 154.62,-1288.55 157.96,-1290.85"/>
<polygon fill="#63b8ff" stroke="#63b8ff" points="156.17,-1293.86 166.59,-1295.8 159.65,-1287.79 156.17,-1293.86"/>
</a>
</g>
</g>
<!-- Node14 -->
<g id="Node000014" class="node">
<title>Node14</title>
<g id="a_Node000014"><a xlink:href="group__ssd1309__interface__driver.html#ga2a6b0fa1a81ed38c32c3e69544b521f9" target="_top" xlink:title="interface command &amp;&amp; data gpio deinit">
<polygon fill="white" stroke="#666666" points="287.38,-1274 171.62,-1274 171.62,-1242 287.38,-1242 287.38,-1274"/>
<text xml:space="preserve" text-anchor="start" x="179.62" y="-1260.5" font-family="Helvetica,sans-Serif" font-size="10.00">ssd1309_interface_spi</text>
<text xml:space="preserve" text-anchor="middle" x="229.5" y="-1248.5" font-family="Helvetica,sans-Serif" font-size="10.00">_cmd_data_gpio_deinit</text>
</a>
</g>
</g>
<!-- Node1&#45;&gt;Node14 -->
<g id="edge13_Node000001_Node000014" class="edge">
<title>Node1&#45;&gt;Node14</title>
<g id="a_edge13_Node000001_Node000014"><a xlink:title=" ">
<path fill="none" stroke="#63b8ff" d="M56.98,-917.46C55.89,-962.17 57.69,-1139.12 148.75,-1233 152.37,-1236.73 156.54,-1239.91 161.04,-1242.62"/>
<polygon fill="#63b8ff" stroke="#63b8ff" points="159.45,-1245.74 169.96,-1247.13 162.62,-1239.49 159.45,-1245.74"/>
</a>
</g>
</g>
<!-- Node15 -->
<g id="Node000015" class="node">
<title>Node15</title>
<g id="a_Node000015"><a xlink:href="group__ssd1309__interface__driver.html#ga1d06686e40f5816b34769ea45b07b67a" target="_top" xlink:title="interface command &amp;&amp; data gpio init">
<polygon fill="white" stroke="#666666" points="286.25,-1224 172.75,-1224 172.75,-1192 286.25,-1192 286.25,-1224"/>
<text xml:space="preserve" text-anchor="start" x="180.75" y="-1210.5" font-family="Helvetica,sans-Serif" font-size="10.00">ssd1309_interface_spi</text>
<text xml:space="preserve" text-anchor="middle" x="229.5" y="-1198.5" font-family="Helvetica,sans-Serif" font-size="10.00">_cmd_data_gpio_init</text>
</a>
</g>
</g>
<!-- Node1&#45;&gt;Node15 -->
<g id="edge14_Node000001_Node000015" class="edge">
<title>Node1&#45;&gt;Node15</title>
<g id="a_edge14_Node000001_Node000015"><a xlink:title=" ">
<path fill="none" stroke="#63b8ff" d="M57.6,-917.49C59.06,-957.93 69.79,-1105.29 148.75,-1183 152.68,-1186.87 157.2,-1190.14 162.05,-1192.9"/>
<polygon fill="#63b8ff" stroke="#63b8ff" points="160.49,-1196.04 171.02,-1197.24 163.54,-1189.74 160.49,-1196.04"/>
</a>
</g>
</g>
<!-- Node16 -->
<g id="Node000016" class="node">
<title>Node16</title>
<g id="a_Node000016"><a xlink:href="group__ssd1309__interface__driver.html#ga900d326366a816504548584e22de4bbf" target="_top" xlink:title="interface command &amp;&amp; data gpio write">
<polygon fill="white" stroke="#666666" points="286.25,-1174 172.75,-1174 172.75,-1142 286.25,-1142 286.25,-1174"/>
<text xml:space="preserve" text-anchor="start" x="180.75" y="-1160.5" font-family="Helvetica,sans-Serif" font-size="10.00">ssd1309_interface_spi</text>
<text xml:space="preserve" text-anchor="middle" x="229.5" y="-1148.5" font-family="Helvetica,sans-Serif" font-size="10.00">_cmd_data_gpio_write</text>
</a>
</g>
</g>
<!-- Node1&#45;&gt;Node16 -->
<g id="edge15_Node000001_Node000016" class="edge">
<title>Node1&#45;&gt;Node16</title>
<g id="a_edge15_Node000001_Node000016"><a xlink:title=" ">
<path fill="none" stroke="#63b8ff" d="M58.45,-917.29C62.7,-952.74 81.56,-1071.01 148.75,-1133 152.74,-1136.68 157.27,-1139.82 162.09,-1142.5"/>
<polygon fill="#63b8ff" stroke="#63b8ff" points="160.42,-1145.58 170.95,-1146.72 163.43,-1139.26 160.42,-1145.58"/>
</a>
</g>
</g>
<!-- Node17 -->
<g id="Node000017" class="node">
<title>Node17</title>
<g id="a_Node000017"><a xlink:href="group__ssd1309__interface__driver.html#gaf7e413328b91658ccfade2a54e205767" target="_top" xlink:title="interface spi bus deinit">
<polygon fill="white" stroke="#666666" points="286.25,-1124 172.75,-1124 172.75,-1092 286.25,-1092 286.25,-1124"/>
<text xml:space="preserve" text-anchor="start" x="180.75" y="-1110.5" font-family="Helvetica,sans-Serif" font-size="10.00">ssd1309_interface_spi</text>
<text xml:space="preserve" text-anchor="middle" x="229.5" y="-1098.5" font-family="Helvetica,sans-Serif" font-size="10.00">_deinit</text>
</a>
</g>
</g>
<!-- Node1&#45;&gt;Node17 -->
<g id="edge16_Node000001_Node000017" class="edge">
<title>Node1&#45;&gt;Node17</title>
<g id="a_edge16_Node000001_Node000017"><a xlink:title=" ">
<path fill="none" stroke="#63b8ff" d="M59.69,-917.08C67.11,-947.03 93.09,-1036.32 148.75,-1083 152.84,-1086.43 157.41,-1089.39 162.22,-1091.95"/>
<polygon fill="#63b8ff" stroke="#63b8ff" points="160.47,-1095 171.02,-1096.01 163.41,-1088.64 160.47,-1095"/>
</a>
</g>
</g>
<!-- Node18 -->
<g id="Node000018" class="node">
<title>Node18</title>
<g id="a_Node000018"><a xlink:href="group__ssd1309__interface__driver.html#gade54d02538734f3fbe583b08a04e77c1" target="_top" xlink:title="interface spi bus init">
<polygon fill="white" stroke="#666666" points="295.25,-1074 163.75,-1074 163.75,-1054 295.25,-1054 295.25,-1074"/>
<text xml:space="preserve" text-anchor="middle" x="229.5" y="-1060.5" font-family="Helvetica,sans-Serif" font-size="10.00">ssd1309_interface_spi_init</text>
</a>
</g>
</g>
<!-- Node1&#45;&gt;Node18 -->
<g id="edge17_Node000001_Node000018" class="edge">
<title>Node1&#45;&gt;Node18</title>
<g id="a_edge17_Node000001_Node000018"><a xlink:title=" ">
<path fill="none" stroke="#63b8ff" d="M61.06,-917.23C70.92,-943.06 100.47,-1011.26 148.75,-1045 150.59,-1046.28 152.5,-1047.48 154.47,-1048.6"/>
<polygon fill="#63b8ff" stroke="#63b8ff" points="152.86,-1051.71 163.39,-1052.89 155.9,-1045.4 152.86,-1051.71"/>
</a>
</g>
</g>
<!-- Node19 -->
<g id="Node000019" class="node">
<title>Node19</title>
<g id="a_Node000019"><a xlink:href="group__ssd1309__interface__driver.html#gaae8a51a63929401cc35e37ecc21c5668" target="_top" xlink:title="interface spi bus write">
<polygon fill="white" stroke="#666666" points="286.25,-1036 172.75,-1036 172.75,-1004 286.25,-1004 286.25,-1036"/>
<text xml:space="preserve" text-anchor="start" x="180.75" y="-1022.5" font-family="Helvetica,sans-Serif" font-size="10.00">ssd1309_interface_spi</text>
<text xml:space="preserve" text-anchor="middle" x="229.5" y="-1010.5" font-family="Helvetica,sans-Serif" font-size="10.00">_write_cmd</text>
</a>
</g>
</g>
<!-- Node1&#45;&gt;Node19 -->
<g id="edge18_Node000001_Node000019" class="edge">
<title>Node1&#45;&gt;Node19</title>
<g id="a_edge18_Node000001_Node000019"><a xlink:title=" ">
<path fill="none" stroke="#63b8ff" d="M65.29,-917.28C79.86,-935.52 112.75,-973.66 148.75,-995 153.01,-997.52 157.55,-999.82 162.22,-1001.9"/>
<polygon fill="#63b8ff" stroke="#63b8ff" points="160.6,-1005.03 171.19,-1005.56 163.25,-998.54 160.6,-1005.03"/>
</a>
</g>
</g>
<!-- Node20 -->
<g id="Node000020" class="node">
<title>Node20</title>
<g id="a_Node000020"><a xlink:href="group__ssd1309__base__driver.html#ga4650ea7526f97e36352c3ebd3e24ab3d" target="_top" xlink:title="set the chip iic address">
<polygon fill="white" stroke="#666666" points="286.25,-986 172.75,-986 172.75,-966 286.25,-966 286.25,-986"/>
<text xml:space="preserve" text-anchor="middle" x="229.5" y="-972.5" font-family="Helvetica,sans-Serif" font-size="10.00">ssd1309_set_addr_pin</text>
</a>
</g>
</g>
<!-- Node1&#45;&gt;Node20 -->
<g id="edge19_Node000001_Node000020" class="edge">
<title>Node1&#45;&gt;Node20</title>
<g id="a_edge19_Node000001_Node000020"><a xlink:title=" ">
<path fill="none" stroke="#63b8ff" d="M73.25,-917.4C90.99,-928.61 120.9,-946.29 148.75,-957 154.01,-959.02 159.55,-960.88 165.16,-962.56"/>
<polygon fill="#63b8ff" stroke="#63b8ff" points="163.95,-965.86 174.53,-965.19 165.84,-959.12 163.95,-965.86"/>
</a>
</g>
</g>
<!-- Node21 -->
<g id="Node000021" class="node">
<title>Node21</title>
<g id="a_Node000021"><a xlink:href="group__ssd1309__base__driver.html#ga0cefb293b80956d98a53d7e3da4ad060" target="_top" xlink:title="set the column address range">
<polygon fill="white" stroke="#666666" points="283.62,-948 175.38,-948 175.38,-916 283.62,-916 283.62,-948"/>
<text xml:space="preserve" text-anchor="start" x="183.38" y="-934.5" font-family="Helvetica,sans-Serif" font-size="10.00">ssd1309_set_column</text>
<text xml:space="preserve" text-anchor="middle" x="229.5" y="-922.5" font-family="Helvetica,sans-Serif" font-size="10.00">_address_range</text>
</a>
</g>
</g>
<!-- Node1&#45;&gt;Node21 -->
<g id="edge20_Node000001_Node000021" class="edge">
<title>Node1&#45;&gt;Node21</title>
<g id="a_edge20_Node000001_Node000021"><a xlink:title=" ">
<path fill="none" stroke="#63b8ff" d="M112.93,-915.12C129.11,-917.48 146.92,-920.08 163.62,-922.52"/>
<polygon fill="#63b8ff" stroke="#63b8ff" points="163.07,-925.98 173.47,-923.96 164.08,-919.05 163.07,-925.98"/>
</a>
</g>
</g>
<!-- Node22 -->
<g id="Node000022" class="node">
<title>Node22</title>
<g id="a_Node000022"><a xlink:href="group__ssd1309__base__driver.html#gac8a568a10e0f9edf09f1c6feb7432e09" target="_top" xlink:title="set the hardware com pins">
<polygon fill="white" stroke="#666666" points="288.88,-898 170.12,-898 170.12,-866 288.88,-866 288.88,-898"/>
<text xml:space="preserve" text-anchor="start" x="178.12" y="-884.5" font-family="Helvetica,sans-Serif" font-size="10.00">ssd1309_set_com_pins</text>
<text xml:space="preserve" text-anchor="middle" x="229.5" y="-872.5" font-family="Helvetica,sans-Serif" font-size="10.00">_hardware_conf</text>
</a>
</g>
</g>
<!-- Node1&#45;&gt;Node22 -->
<g id="edge21_Node000001_Node000022" class="edge">
<title>Node1&#45;&gt;Node22</title>
<g id="a_edge21_Node000001_Node000022"><a xlink:title=" ">
<path fill="none" stroke="#63b8ff" d="M112.93,-898.88C127.54,-896.75 143.48,-894.42 158.73,-892.19"/>
<polygon fill="#63b8ff" stroke="#63b8ff" points="158.8,-895.72 168.19,-890.81 157.79,-888.79 158.8,-895.72"/>
</a>
</g>
</g>
<!-- Node23 -->
<g id="Node000023" class="node">
<title>Node23</title>
<g id="a_Node000023"><a xlink:href="group__ssd1309__base__driver.html#gac5dfb901e861028014aa2e1494d48020" target="_top" xlink:title="set the display contrast">
<polygon fill="white" stroke="#666666" points="285.5,-848 173.5,-848 173.5,-828 285.5,-828 285.5,-848"/>
<text xml:space="preserve" text-anchor="middle" x="229.5" y="-834.5" font-family="Helvetica,sans-Serif" font-size="10.00">ssd1309_set_contrast</text>
</a>
</g>
</g>
<!-- Node1&#45;&gt;Node23 -->
<g id="edge22_Node000001_Node000023" class="edge">
<title>Node1&#45;&gt;Node23</title>
<g id="a_edge22_Node000001_Node000023"><a xlink:title=" ">
<path fill="none" stroke="#63b8ff" d="M73.25,-896.6C90.99,-885.39 120.9,-867.71 148.75,-857 154.01,-854.98 159.55,-853.12 165.16,-851.44"/>
<polygon fill="#63b8ff" stroke="#63b8ff" points="165.84,-854.88 174.53,-848.81 163.95,-848.14 165.84,-854.88"/>
</a>
</g>
</g>
<!-- Node24 -->
<g id="Node000024" class="node">
<title>Node24</title>
<g id="a_Node000024"><a xlink:href="group__ssd1309__base__driver.html#gaa14be5d3ff0ad1880217424d4b194a0e" target="_top" xlink:title="set the deselect level">
<polygon fill="white" stroke="#666666" points="286.25,-810 172.75,-810 172.75,-778 286.25,-778 286.25,-810"/>
<text xml:space="preserve" text-anchor="start" x="180.75" y="-796.5" font-family="Helvetica,sans-Serif" font-size="10.00">ssd1309_set_deselect</text>
<text xml:space="preserve" text-anchor="middle" x="229.5" y="-784.5" font-family="Helvetica,sans-Serif" font-size="10.00">_level</text>
</a>
</g>
</g>
<!-- Node1&#45;&gt;Node24 -->
<g id="edge23_Node000001_Node000024" class="edge">
<title>Node1&#45;&gt;Node24</title>
<g id="a_edge23_Node000001_Node000024"><a xlink:title=" ">
<path fill="none" stroke="#63b8ff" d="M65.29,-896.72C79.86,-878.48 112.75,-840.34 148.75,-819 153.01,-816.48 157.55,-814.18 162.22,-812.1"/>
<polygon fill="#63b8ff" stroke="#63b8ff" points="163.25,-815.46 171.19,-808.44 160.6,-808.97 163.25,-815.46"/>
</a>
</g>
</g>
<!-- Node25 -->
<g id="Node000025" class="node">
<title>Node25</title>
<g id="a_Node000025"><a xlink:href="group__ssd1309__base__driver.html#ga3e7927240cc63129df0855c6bdb5bba0" target="_top" xlink:title="enable or disable the display">
<polygon fill="white" stroke="#666666" points="283.25,-760 175.75,-760 175.75,-740 283.25,-740 283.25,-760"/>
<text xml:space="preserve" text-anchor="middle" x="229.5" y="-746.5" font-family="Helvetica,sans-Serif" font-size="10.00">ssd1309_set_display</text>
</a>
</g>
</g>
<!-- Node1&#45;&gt;Node25 -->
<g id="edge24_Node000001_Node000025" class="edge">
<title>Node1&#45;&gt;Node25</title>
<g id="a_edge24_Node000001_Node000025"><a xlink:title=" ">
<path fill="none" stroke="#63b8ff" d="M61.06,-896.77C70.92,-870.94 100.47,-802.74 148.75,-769 153.71,-765.54 159.22,-762.7 164.96,-760.37"/>
<polygon fill="#63b8ff" stroke="#63b8ff" points="165.75,-763.8 174.05,-757.22 163.45,-757.19 165.75,-763.8"/>
</a>
</g>
</g>
<!-- Node26 -->
<g id="Node000026" class="node">
<title>Node26</title>
<g id="a_Node000026"><a xlink:href="group__ssd1309__base__driver.html#ga2a5d4c315562b42c63c7140130b6ac87" target="_top" xlink:title="set the display clock">
<polygon fill="white" stroke="#666666" points="283.25,-722 175.75,-722 175.75,-690 283.25,-690 283.25,-722"/>
<text xml:space="preserve" text-anchor="start" x="183.75" y="-708.5" font-family="Helvetica,sans-Serif" font-size="10.00">ssd1309_set_display</text>
<text xml:space="preserve" text-anchor="middle" x="229.5" y="-696.5" font-family="Helvetica,sans-Serif" font-size="10.00">_clock</text>
</a>
</g>
</g>
<!-- Node1&#45;&gt;Node26 -->
<g id="edge25_Node000001_Node000026" class="edge">
<title>Node1&#45;&gt;Node26</title>
<g id="a_edge25_Node000001_Node000026"><a xlink:title=" ">
<path fill="none" stroke="#63b8ff" d="M59.69,-896.92C67.11,-866.97 93.09,-777.68 148.75,-731 153.54,-726.98 158.99,-723.6 164.72,-720.77"/>
<polygon fill="#63b8ff" stroke="#63b8ff" points="166.09,-723.99 173.9,-716.83 163.33,-717.56 166.09,-723.99"/>
</a>
</g>
</g>
<!-- Node27 -->
<g id="Node000027" class="node">
<title>Node27</title>
<g id="a_Node000027"><a xlink:href="group__ssd1309__base__driver.html#gab3a0647377988fc41f3a627cbf1cae61" target="_top" xlink:title="set the display mode">
<polygon fill="white" stroke="#666666" points="297.88,-672 161.12,-672 161.12,-652 297.88,-652 297.88,-672"/>
<text xml:space="preserve" text-anchor="middle" x="229.5" y="-658.5" font-family="Helvetica,sans-Serif" font-size="10.00">ssd1309_set_display_mode</text>
</a>
</g>
</g>
<!-- Node1&#45;&gt;Node27 -->
<g id="edge26_Node000001_Node000027" class="edge">
<title>Node1&#45;&gt;Node27</title>
<g id="a_edge26_Node000001_Node000027"><a xlink:title=" ">
<path fill="none" stroke="#63b8ff" d="M58.29,-896.54C62.04,-860.52 79.44,-740.6 148.75,-681 149.87,-680.03 151.04,-679.12 152.24,-678.24"/>
<polygon fill="#63b8ff" stroke="#63b8ff" points="153.95,-681.3 160.73,-673.16 150.35,-675.29 153.95,-681.3"/>
</a>
</g>
</g>
<!-- Node28 -->
<g id="Node000028" class="node">
<title>Node28</title>
<g id="a_Node000028"><a xlink:href="group__ssd1309__base__driver.html#ga721d51e55d8798779ee22b1cd9574b55" target="_top" xlink:title="set the display offset">
<polygon fill="white" stroke="#666666" points="283.25,-634 175.75,-634 175.75,-602 283.25,-602 283.25,-634"/>
<text xml:space="preserve" text-anchor="start" x="183.75" y="-620.5" font-family="Helvetica,sans-Serif" font-size="10.00">ssd1309_set_display</text>
<text xml:space="preserve" text-anchor="middle" x="229.5" y="-608.5" font-family="Helvetica,sans-Serif" font-size="10.00">_offset</text>
</a>
</g>
</g>
<!-- Node1&#45;&gt;Node28 -->
<g id="edge27_Node000001_Node000028" class="edge">
<title>Node1&#45;&gt;Node28</title>
<g id="a_edge27_Node000001_Node000028"><a xlink:title=" ">
<path fill="none" stroke="#63b8ff" d="M57.77,-896.69C59.85,-857.59 72.55,-716.99 148.75,-643 153.48,-638.4 159.05,-634.65 165.01,-631.59"/>
<polygon fill="#63b8ff" stroke="#63b8ff" points="166.2,-634.89 173.94,-627.66 163.38,-628.48 166.2,-634.89"/>
</a>
</g>
</g>
<!-- Node29 -->
<g id="Node000029" class="node">
<title>Node29</title>
<g id="a_Node000029"><a xlink:href="group__ssd1309__base__driver.html#ga9c01a2d4828319ded2d2fd6aad03eb88" target="_top" xlink:title="set the display start line">
<polygon fill="white" stroke="#666666" points="283.25,-584 175.75,-584 175.75,-552 283.25,-552 283.25,-584"/>
<text xml:space="preserve" text-anchor="start" x="183.75" y="-570.5" font-family="Helvetica,sans-Serif" font-size="10.00">ssd1309_set_display</text>
<text xml:space="preserve" text-anchor="middle" x="229.5" y="-558.5" font-family="Helvetica,sans-Serif" font-size="10.00">_start_line</text>
</a>
</g>
</g>
<!-- Node1&#45;&gt;Node29 -->
<g id="edge28_Node000001_Node000029" class="edge">
<title>Node1&#45;&gt;Node29</title>
<g id="a_edge28_Node000001_Node000029"><a xlink:title=" ">
<path fill="none" stroke="#63b8ff" d="M57.11,-896.62C56.61,-853.05 60.55,-683.04 148.75,-593 153.43,-588.22 159.02,-584.35 165.03,-581.22"/>
<polygon fill="#63b8ff" stroke="#63b8ff" points="166.34,-584.47 174.07,-577.22 163.51,-578.06 166.34,-584.47"/>
</a>
</g>
</g>
<!-- Node30 -->
<g id="Node000030" class="node">
<title>Node30</title>
<g id="a_Node000030"><a xlink:href="group__ssd1309__base__driver.html#ga8ba5abc7b722cc3eeec9069e57200639" target="_top" xlink:title="enable or disable the entire display">
<polygon fill="white" stroke="#666666" points="279.88,-534 179.12,-534 179.12,-502 279.88,-502 279.88,-534"/>
<text xml:space="preserve" text-anchor="start" x="187.12" y="-520.5" font-family="Helvetica,sans-Serif" font-size="10.00">ssd1309_set_entire</text>
<text xml:space="preserve" text-anchor="middle" x="229.5" y="-508.5" font-family="Helvetica,sans-Serif" font-size="10.00">_display</text>
</a>
</g>
</g>
<!-- Node1&#45;&gt;Node30 -->
<g id="edge29_Node000001_Node000030" class="edge">
<title>Node1&#45;&gt;Node30</title>
<g id="a_edge29_Node000001_Node000030"><a xlink:title=" ">
<path fill="none" stroke="#63b8ff" d="M58.59,-896.83C65.12,-843.55 97.77,-597.02 148.75,-543 154.23,-537.19 161.05,-532.72 168.36,-529.29"/>
<polygon fill="#63b8ff" stroke="#63b8ff" points="169.54,-532.59 177.55,-525.65 166.97,-526.08 169.54,-532.59"/>
</a>
</g>
</g>
<!-- Node31 -->
<g id="Node000031" class="node">
<title>Node31</title>
<g id="a_Node000031"><a xlink:href="group__ssd1309__base__driver.html#ga701a7db34a52a311c30a4a1346bd984f" target="_top" xlink:title="set gpio">
<polygon fill="white" stroke="#666666" points="276.88,-484 182.12,-484 182.12,-464 276.88,-464 276.88,-484"/>
<text xml:space="preserve" text-anchor="middle" x="229.5" y="-470.5" font-family="Helvetica,sans-Serif" font-size="10.00">ssd1309_set_gpio</text>
</a>
</g>
</g>
<!-- Node1&#45;&gt;Node31 -->
<g id="edge30_Node000001_Node000031" class="edge">
<title>Node1&#45;&gt;Node31</title>
<g id="a_edge30_Node000001_Node000031"><a xlink:title=" ">
<path fill="none" stroke="#63b8ff" d="M58.21,-896.55C63.05,-838.19 89.53,-553.22 148.75,-493 154.86,-486.79 162.6,-482.46 170.85,-479.48"/>
<polygon fill="#63b8ff" stroke="#63b8ff" points="171.81,-482.84 180.44,-476.69 169.86,-476.12 171.81,-482.84"/>
</a>
</g>
</g>
<!-- Node32 -->
<g id="Node000032" class="node">
<title>Node32</title>
<g id="a_Node000032"><a xlink:href="group__ssd1309__base__driver.html#ga3ae4e87ae6066f6aa194ac157e1e1306" target="_top" xlink:title="set the high column start address">
<polygon fill="white" stroke="#666666" points="295.25,-446 163.75,-446 163.75,-414 295.25,-414 295.25,-446"/>
<text xml:space="preserve" text-anchor="start" x="171.75" y="-432.5" font-family="Helvetica,sans-Serif" font-size="10.00">ssd1309_set_high_column</text>
<text xml:space="preserve" text-anchor="middle" x="229.5" y="-420.5" font-family="Helvetica,sans-Serif" font-size="10.00">_start_address</text>
</a>
</g>
</g>
<!-- Node1&#45;&gt;Node32 -->
<g id="edge31_Node000001_Node000032" class="edge">
<title>Node1&#45;&gt;Node32</title>
<g id="a_edge31_Node000001_Node000032"><a xlink:title=" ">
<path fill="none" stroke="#63b8ff" d="M58.05,-896.88C62.26,-836.45 86.86,-523.71 148.75,-455 150.45,-453.12 152.28,-451.37 154.23,-449.76"/>
<polygon fill="#63b8ff" stroke="#63b8ff" points="155.88,-452.87 162.17,-444.35 151.93,-447.09 155.88,-452.87"/>
</a>
</g>
</g>
<!-- Node33 -->
<g id="Node000033" class="node">
<title>Node33</title>
<g id="a_Node000033"><a xlink:href="group__ssd1309__base__driver.html#ga8b7ad4864fec63f7dce63e65ec10cc38" target="_top" xlink:title="set the chip interface">
<polygon fill="white" stroke="#666666" points="286.62,-396 172.38,-396 172.38,-376 286.62,-376 286.62,-396"/>
<text xml:space="preserve" text-anchor="middle" x="229.5" y="-382.5" font-family="Helvetica,sans-Serif" font-size="10.00">ssd1309_set_interface</text>
</a>
</g>
</g>
<!-- Node1&#45;&gt;Node33 -->
<g id="edge32_Node000001_Node000033" class="edge">
<title>Node1&#45;&gt;Node33</title>
<g id="a_edge32_Node000001_Node000033"><a xlink:title=" ">
<path fill="none" stroke="#63b8ff" d="M57.77,-896.56C60.45,-831.27 78.07,-479.59 148.75,-405 152.53,-401.01 156.98,-397.8 161.82,-395.21"/>
<polygon fill="#63b8ff" stroke="#63b8ff" points="163,-398.51 170.8,-391.33 160.23,-392.08 163,-398.51"/>
</a>
</g>
</g>
<!-- Node34 -->
<g id="Node000034" class="node">
<title>Node34</title>
<g id="a_Node000034"><a xlink:href="group__ssd1309__base__driver.html#gaa1b674edb792cdbe3292e4b22503df03" target="_top" xlink:title="set the low column start address">
<polygon fill="white" stroke="#666666" points="293.75,-358 165.25,-358 165.25,-326 293.75,-326 293.75,-358"/>
<text xml:space="preserve" text-anchor="start" x="173.25" y="-344.5" font-family="Helvetica,sans-Serif" font-size="10.00">ssd1309_set_low_column</text>
<text xml:space="preserve" text-anchor="middle" x="229.5" y="-332.5" font-family="Helvetica,sans-Serif" font-size="10.00">_start_address</text>
</a>
</g>
</g>
<!-- Node1&#45;&gt;Node34 -->
<g id="edge33_Node000001_Node000034" class="edge">
<title>Node1&#45;&gt;Node34</title>
<g id="a_edge33_Node000001_Node000034"><a xlink:title=" ">
<path fill="none" stroke="#63b8ff" d="M57.69,-896.73C59.97,-829.33 75.93,-450.47 148.75,-367 150.71,-364.75 152.87,-362.7 155.19,-360.84"/>
<polygon fill="#63b8ff" stroke="#63b8ff" points="157.11,-363.77 163.53,-355.34 153.25,-357.92 157.11,-363.77"/>
</a>
</g>
</g>
<!-- Node35 -->
<g id="Node000035" class="node">
<title>Node35</title>
<g id="a_Node000035"><a xlink:href="group__ssd1309__base__driver.html#ga095443b32ed4bddc9638923a5d4796d2" target="_top" xlink:title="enable or disable mcu interface lock">
<polygon fill="white" stroke="#666666" points="310.25,-308 148.75,-308 148.75,-288 310.25,-288 310.25,-308"/>
<text xml:space="preserve" text-anchor="middle" x="229.5" y="-294.5" font-family="Helvetica,sans-Serif" font-size="10.00">ssd1309_set_mcu_interface_lock</text>
</a>
</g>
</g>
<!-- Node1&#45;&gt;Node35 -->
<g id="edge34_Node000001_Node000035" class="edge">
<title>Node1&#45;&gt;Node35</title>
<g id="a_edge34_Node000001_Node000035"><a xlink:title=" ">
<path fill="none" stroke="#63b8ff" d="M57.46,-896.65C58.27,-825.27 66.51,-406.12 148.75,-317 149.23,-316.48 149.73,-315.97 150.23,-315.47"/>
<polygon fill="#63b8ff" stroke="#63b8ff" points="152.29,-318.3 158.07,-309.42 148.02,-312.76 152.29,-318.3"/>
</a>
</g>
</g>
<!-- Node36 -->
<g id="Node000036" class="node">
<title>Node36</title>
<g id="a_Node000036"><a xlink:href="group__ssd1309__base__driver.html#ga64c24f88c5ae9556b832aa345ced03bf" target="_top" xlink:title="set the memory addressing mode">
<polygon fill="white" stroke="#666666" points="285.5,-270 173.5,-270 173.5,-238 285.5,-238 285.5,-270"/>
<text xml:space="preserve" text-anchor="start" x="181.5" y="-256.5" font-family="Helvetica,sans-Serif" font-size="10.00">ssd1309_set_memory</text>
<text xml:space="preserve" text-anchor="middle" x="229.5" y="-244.5" font-family="Helvetica,sans-Serif" font-size="10.00">_addressing_mode</text>
</a>
</g>
</g>
<!-- Node1&#45;&gt;Node36 -->
<g id="edge35_Node000001_Node000036" class="edge">
<title>Node1&#45;&gt;Node36</title>
<g id="a_edge35_Node000001_Node000036"><a xlink:title=" ">
<path fill="none" stroke="#63b8ff" d="M57.43,-896.54C58,-822.46 64.96,-377.32 148.75,-279 152.81,-274.24 157.76,-270.37 163.2,-267.23"/>
<polygon fill="#63b8ff" stroke="#63b8ff" points="164.54,-270.47 172.04,-262.99 161.51,-264.16 164.54,-270.47"/>
</a>
</g>
</g>
<!-- Node37 -->
<g id="Node000037" class="node">
<title>Node37</title>
<g id="a_Node000037"><a xlink:href="group__ssd1309__base__driver.html#gabac0f4fb41b707b44e147873534a7a99" target="_top" xlink:title="set the multiplex ratio">
<polygon fill="white" stroke="#666666" points="287.38,-220 171.62,-220 171.62,-188 287.38,-188 287.38,-220"/>
<text xml:space="preserve" text-anchor="start" x="179.62" y="-206.5" font-family="Helvetica,sans-Serif" font-size="10.00">ssd1309_set_multiplex</text>
<text xml:space="preserve" text-anchor="middle" x="229.5" y="-194.5" font-family="Helvetica,sans-Serif" font-size="10.00">_ratio</text>
</a>
</g>
</g>
<!-- Node1&#45;&gt;Node37 -->
<g id="edge36_Node000001_Node000037" class="edge">
<title>Node1&#45;&gt;Node37</title>
<g id="a_edge36_Node000001_Node000037"><a xlink:title=" ">
<path fill="none" stroke="#63b8ff" d="M57.3,-896.71C56.99,-819.89 58.6,-335.92 148.75,-229 152.3,-224.78 156.56,-221.27 161.23,-218.34"/>
<polygon fill="#63b8ff" stroke="#63b8ff" points="162.7,-221.52 169.97,-213.81 159.48,-215.31 162.7,-221.52"/>
</a>
</g>
</g>
<!-- Node38 -->
<g id="Node000038" class="node">
<title>Node38</title>
<g id="a_Node000038"><a xlink:href="group__ssd1309__base__driver.html#gaaec51a06d12a91873ba2db69c547a56c" target="_top" xlink:title="set the page address range">
<polygon fill="white" stroke="#666666" points="298.25,-170 160.75,-170 160.75,-138 298.25,-138 298.25,-170"/>
<text xml:space="preserve" text-anchor="start" x="168.75" y="-156.5" font-family="Helvetica,sans-Serif" font-size="10.00">ssd1309_set_page_address</text>
<text xml:space="preserve" text-anchor="middle" x="229.5" y="-144.5" font-family="Helvetica,sans-Serif" font-size="10.00">_range</text>
</a>
</g>
</g>
<!-- Node1&#45;&gt;Node38 -->
<g id="edge37_Node000001_Node000038" class="edge">
<title>Node1&#45;&gt;Node38</title>
<g id="a_edge37_Node000001_Node000038"><a xlink:title=" ">
<path fill="none" stroke="#63b8ff" d="M57.2,-896.98C56.05,-817.93 52.18,-294.6 148.75,-179 149.69,-177.87 150.68,-176.8 151.72,-175.77"/>
<polygon fill="#63b8ff" stroke="#63b8ff" points="153.65,-178.7 159.28,-169.72 149.28,-173.24 153.65,-178.7"/>
</a>
</g>
</g>
<!-- Node39 -->
<g id="Node000039" class="node">
<title>Node39</title>
<g id="a_Node000039"><a xlink:href="group__ssd1309__base__driver.html#gaecfff81cb15938295aec668a81f64f37" target="_top" xlink:title="set the pre charge period">
<polygon fill="white" stroke="#666666" points="289.25,-120 169.75,-120 169.75,-88 289.25,-88 289.25,-120"/>
<text xml:space="preserve" text-anchor="start" x="177.75" y="-106.5" font-family="Helvetica,sans-Serif" font-size="10.00">ssd1309_set_precharge</text>
<text xml:space="preserve" text-anchor="middle" x="229.5" y="-94.5" font-family="Helvetica,sans-Serif" font-size="10.00">_period</text>
</a>
</g>
</g>
<!-- Node1&#45;&gt;Node39 -->
<g id="edge38_Node000001_Node000039" class="edge">
<title>Node1&#45;&gt;Node39</title>
<g id="a_edge38_Node000001_Node000039"><a xlink:title=" ">
<path fill="none" stroke="#63b8ff" d="M57.92,-896.65C62.59,-808.9 97.17,-191.24 148.75,-129 151.87,-125.23 155.56,-122.02 159.61,-119.28"/>
<polygon fill="#63b8ff" stroke="#63b8ff" points="161.24,-122.38 168.28,-114.47 157.84,-116.26 161.24,-122.38"/>
</a>
</g>
</g>
<!-- Node40 -->
<g id="Node000040" class="node">
<title>Node40</title>
<g id="a_Node000040"><a xlink:href="group__ssd1309__base__driver.html#ga9b3eb7515138d1c271c0c2649d3d866a" target="_top" xlink:title="set the scan direction">
<polygon fill="white" stroke="#666666" points="299.38,-70 159.62,-70 159.62,-50 299.38,-50 299.38,-70"/>
<text xml:space="preserve" text-anchor="middle" x="229.5" y="-56.5" font-family="Helvetica,sans-Serif" font-size="10.00">ssd1309_set_scan_direction</text>
</a>
</g>
</g>
<!-- Node1&#45;&gt;Node40 -->
<g id="edge39_Node000001_Node000040" class="edge">
<title>Node1&#45;&gt;Node40</title>
<g id="a_edge39_Node000001_Node000040"><a xlink:title=" ">
<path fill="none" stroke="#63b8ff" d="M57.81,-896.54C61.7,-805.11 91.73,-143.57 148.75,-79 149.33,-78.34 149.93,-77.7 150.55,-77.08"/>
<polygon fill="#63b8ff" stroke="#63b8ff" points="152.54,-79.97 158.27,-71.05 148.23,-74.45 152.54,-79.97"/>
</a>
</g>
</g>
<!-- Node41 -->
<g id="Node000041" class="node">
<title>Node41</title>
<g id="a_Node000041"><a xlink:href="group__ssd1309__base__driver.html#gaf741216335740397f4eeb033a4cb7789" target="_top" xlink:title="set the segment remap">
<polygon fill="white" stroke="#666666" points="286.62,-32 172.38,-32 172.38,0 286.62,0 286.62,-32"/>
<text xml:space="preserve" text-anchor="start" x="180.38" y="-18.5" font-family="Helvetica,sans-Serif" font-size="10.00">ssd1309_set_segment</text>
<text xml:space="preserve" text-anchor="middle" x="229.5" y="-6.5" font-family="Helvetica,sans-Serif" font-size="10.00">_remap</text>
</a>
</g>
</g>
<!-- Node1&#45;&gt;Node41 -->
<g id="edge40_Node000001_Node000041" class="edge">
<title>Node1&#45;&gt;Node41</title>
<g id="a_edge40_Node000001_Node000041"><a xlink:title=" ">
<path fill="none" stroke="#63b8ff" d="M57.79,-896.68C61.57,-803.63 91.58,-110.82 148.75,-41 152.45,-36.48 156.95,-32.77 161.92,-29.72"/>
<polygon fill="#63b8ff" stroke="#63b8ff" points="163.26,-32.96 170.59,-25.31 160.09,-26.72 163.26,-32.96"/>
</a>
</g>
</g>
</g>
</svg>
