<?xml version="1.0" encoding="UTF-8" standalone="no"?>
<!DOCTYPE svg PUBLIC "-//W3C//DTD SVG 1.1//EN"
 "http://www.w3.org/Graphics/SVG/1.1/DTD/svg11.dtd">
<!-- Generated by graphviz version 14.1.1 (20251213.1925)
 -->
<!-- Title: ssd1309_basic_init Pages: 1 -->
<svg width="305pt" height="1822pt"
 viewBox="0.00 0.00 305.00 1822.00" xmlns="http://www.w3.org/2000/svg" xmlns:xlink="http://www.w3.org/1999/xlink">
<g id="graph0" class="graph" transform="scale(1 1) rotate(0) translate(4 1818)">
<title>ssd1309_basic_init</title>
<!-- Node1 -->
<g id="Node000001" class="node">
<title>Node1</title>
<g id="a_Node000001"><a xlink:title="basic example init">
<polygon fill="#999999" stroke="#666666" points="99.25,-917 0,-917 0,-897 99.25,-897 99.25,-917"/>
<text xml:space="preserve" text-anchor="middle" x="49.62" y="-903.5" font-family="Helvetica,sans-Serif" font-size="10.00">ssd1309_basic_init</text>
</a>
</g>
</g>
<!-- Node2 -->
<g id="Node000002" class="node">
<title>Node2</title>
<g id="a_Node000002"><a xlink:href="group__ssd1309__base__driver.html#gae0f1bf5a14786a749edbf2e747dc82c2" target="_top" xlink:title="clear the screen">
<polygon fill="white" stroke="#666666" points="255.5,-1814 176.5,-1814 176.5,-1794 255.5,-1794 255.5,-1814"/>
<text xml:space="preserve" text-anchor="middle" x="216" y="-1800.5" font-family="Helvetica,sans-Serif" font-size="10.00">ssd1309_clear</text>
</a>
</g>
</g>
<!-- Node1&#45;&gt;Node2 -->
<g id="edge1_Node000001_Node000002" class="edge">
<title>Node1&#45;&gt;Node2</title>
<g id="a_edge1_Node000001_Node000002"><a xlink:title=" ">
<path fill="none" stroke="#63b8ff" d="M50.91,-917.48C53.56,-1012.05 75.22,-1716.07 135.25,-1785 142.97,-1793.87 154.01,-1798.99 165.43,-1801.86"/>
<polygon fill="#63b8ff" stroke="#63b8ff" points="164.42,-1805.23 174.9,-1803.69 165.75,-1798.36 164.42,-1805.23"/>
</a>
</g>
</g>
<!-- Node3 -->
<g id="Node000003" class="node">
<title>Node3</title>
<g id="a_Node000003"><a xlink:href="group__ssd1309__base__driver.html#ga09d6738ceb0c6e5eab7845ccdc1edcbc" target="_top" xlink:title="deactivate the scroll">
<polygon fill="white" stroke="#666666" points="267.5,-1776 164.5,-1776 164.5,-1744 267.5,-1744 267.5,-1776"/>
<text xml:space="preserve" text-anchor="start" x="172.5" y="-1762.5" font-family="Helvetica,sans-Serif" font-size="10.00">ssd1309_deactivate</text>
<text xml:space="preserve" text-anchor="middle" x="216" y="-1750.5" font-family="Helvetica,sans-Serif" font-size="10.00">_scroll</text>
</a>
</g>
</g>
<!-- Node1&#45;&gt;Node3 -->
<g id="edge2_Node000001_Node000003" class="edge">
<title>Node1&#45;&gt;Node3</title>
<g id="a_edge2_Node000001_Node000003"><a xlink:title=" ">
<path fill="none" stroke="#63b8ff" d="M51,-917.43C54.41,-1008.59 80.84,-1668.32 135.25,-1735 140.18,-1741.04 146.56,-1745.65 153.55,-1749.16"/>
<polygon fill="#63b8ff" stroke="#63b8ff" points="152.18,-1752.38 162.75,-1752.97 154.86,-1745.91 152.18,-1752.38"/>
</a>
</g>
</g>
<!-- Node4 -->
<g id="Node000004" class="node">
<title>Node4</title>
<g id="a_Node000004"><a xlink:href="group__ssd1309__base__driver.html#ga18e7bcb6a35fc45dc9ef935c107e0161" target="_top" xlink:title="close the chip">
<polygon fill="white" stroke="#666666" points="256.62,-1726 175.38,-1726 175.38,-1706 256.62,-1706 256.62,-1726"/>
<text xml:space="preserve" text-anchor="middle" x="216" y="-1712.5" font-family="Helvetica,sans-Serif" font-size="10.00">ssd1309_deinit</text>
</a>
</g>
</g>
<!-- Node1&#45;&gt;Node4 -->
<g id="edge3_Node000001_Node000004" class="edge">
<title>Node1&#45;&gt;Node4</title>
<g id="a_edge3_Node000001_Node000004"><a xlink:title=" ">
<path fill="none" stroke="#63b8ff" d="M51.02,-917.25C54.48,-1005.52 81.02,-1635.4 135.25,-1697 142.73,-1705.49 153.25,-1710.54 164.21,-1713.47"/>
<polygon fill="#63b8ff" stroke="#63b8ff" points="163.23,-1716.84 173.73,-1715.43 164.64,-1709.99 163.23,-1716.84"/>
</a>
</g>
</g>
<!-- Node5 -->
<g id="Node000005" class="node">
<title>Node5</title>
<g id="a_Node000005"><a xlink:href="group__ssd1309__base__driver.html#ga47c2e3a521204ec8787577cc9ea5c3a0" target="_top" xlink:title="initialize the chip">
<polygon fill="white" stroke="#666666" points="251.38,-1688 180.62,-1688 180.62,-1668 251.38,-1668 251.38,-1688"/>
<text xml:space="preserve" text-anchor="middle" x="216" y="-1674.5" font-family="Helvetica,sans-Serif" font-size="10.00">ssd1309_init</text>
</a>
</g>
</g>
<!-- Node1&#45;&gt;Node5 -->
<g id="edge4_Node000001_Node000005" class="edge">
<title>Node1&#45;&gt;Node5</title>
<g id="a_edge4_Node000001_Node000005"><a xlink:title=" ">
<path fill="none" stroke="#63b8ff" d="M51.08,-917.3C54.94,-1003.32 83.55,-1600.59 135.25,-1659 143.86,-1668.73 156.47,-1673.93 169.13,-1676.61"/>
<polygon fill="#63b8ff" stroke="#63b8ff" points="168.25,-1680.01 178.67,-1678.12 169.34,-1673.1 168.25,-1680.01"/>
</a>
</g>
</g>
<!-- Node6 -->
<g id="Node000006" class="node">
<title>Node6</title>
<g id="a_Node000006"><a xlink:href="group__ssd1309__interface__driver.html#gab3935699d21c1034e9e1b78f11b4c279" target="_top" xlink:title="interface print format data">
<polygon fill="white" stroke="#666666" points="279.5,-1650 152.5,-1650 152.5,-1618 279.5,-1618 279.5,-1650"/>
<text xml:space="preserve" text-anchor="start" x="160.5" y="-1636.5" font-family="Helvetica,sans-Serif" font-size="10.00">ssd1309_interface_debug</text>
<text xml:space="preserve" text-anchor="middle" x="216" y="-1624.5" font-family="Helvetica,sans-Serif" font-size="10.00">_print</text>
</a>
</g>
</g>
<!-- Node1&#45;&gt;Node6 -->
<g id="edge5_Node000001_Node000006" class="edge">
<title>Node1&#45;&gt;Node6</title>
<g id="a_edge5_Node000001_Node000006"><a xlink:title=" ">
<path fill="none" stroke="#63b8ff" d="M50.39,-917.39C48.85,-996.06 42.75,-1497.72 135.25,-1609 137.5,-1611.7 140.03,-1614.12 142.78,-1616.27"/>
<polygon fill="#63b8ff" stroke="#63b8ff" points="140.62,-1619.05 150.92,-1621.51 144.4,-1613.16 140.62,-1619.05"/>
</a>
</g>
</g>
<!-- Node7 -->
<g id="Node000007" class="node">
<title>Node7</title>
<g id="a_Node000007"><a xlink:href="group__ssd1309__interface__driver.html#ga662fbc3cd06340ac767d3ed5494db55d" target="_top" xlink:title="interface delay ms">
<polygon fill="white" stroke="#666666" points="287.38,-1600 144.62,-1600 144.62,-1580 287.38,-1580 287.38,-1600"/>
<text xml:space="preserve" text-anchor="middle" x="216" y="-1586.5" font-family="Helvetica,sans-Serif" font-size="10.00">ssd1309_interface_delay_ms</text>
</a>
</g>
</g>
<!-- Node1&#45;&gt;Node7 -->
<g id="edge6_Node000001_Node000007" class="edge">
<title>Node1&#45;&gt;Node7</title>
<g id="a_edge6_Node000001_Node000007"><a xlink:title=" ">
<path fill="none" stroke="#63b8ff" d="M50.41,-917.13C48.99,-992.78 43.81,-1469.2 135.25,-1571 135.73,-1571.53 136.21,-1572.05 136.71,-1572.55"/>
<polygon fill="#63b8ff" stroke="#63b8ff" points="134.46,-1575.23 144.48,-1578.66 138.79,-1569.73 134.46,-1575.23"/>
</a>
</g>
</g>
<!-- Node8 -->
<g id="Node000008" class="node">
<title>Node8</title>
<g id="a_Node000008"><a xlink:href="group__ssd1309__interface__driver.html#ga71ec036ea3ab96e1d30e433effa27cbe" target="_top" xlink:title="interface iic bus deinit">
<polygon fill="white" stroke="#666666" points="271.25,-1562 160.75,-1562 160.75,-1530 271.25,-1530 271.25,-1562"/>
<text xml:space="preserve" text-anchor="start" x="168.75" y="-1548.5" font-family="Helvetica,sans-Serif" font-size="10.00">ssd1309_interface_iic</text>
<text xml:space="preserve" text-anchor="middle" x="216" y="-1536.5" font-family="Helvetica,sans-Serif" font-size="10.00">_deinit</text>
</a>
</g>
</g>
<!-- Node1&#45;&gt;Node8 -->
<g id="edge7_Node000001_Node000008" class="edge">
<title>Node1&#45;&gt;Node8</title>
<g id="a_edge7_Node000001_Node000008"><a xlink:title=" ">
<path fill="none" stroke="#63b8ff" d="M50.59,-917.23C50.56,-989.62 53.78,-1424.66 135.25,-1521 139.35,-1525.85 144.38,-1529.77 149.89,-1532.94"/>
<polygon fill="#63b8ff" stroke="#63b8ff" points="148.36,-1536.08 158.9,-1537.22 151.37,-1529.76 148.36,-1536.08"/>
</a>
</g>
</g>
<!-- Node9 -->
<g id="Node000009" class="node">
<title>Node9</title>
<g id="a_Node000009"><a xlink:href="group__ssd1309__interface__driver.html#ga215e6e29ceb2bbfc683ee21514e852f7" target="_top" xlink:title="interface iic bus init">
<polygon fill="white" stroke="#666666" points="280.25,-1512 151.75,-1512 151.75,-1492 280.25,-1492 280.25,-1512"/>
<text xml:space="preserve" text-anchor="middle" x="216" y="-1498.5" font-family="Helvetica,sans-Serif" font-size="10.00">ssd1309_interface_iic_init</text>
</a>
</g>
</g>
<!-- Node1&#45;&gt;Node9 -->
<g id="edge8_Node000001_Node000009" class="edge">
<title>Node1&#45;&gt;Node9</title>
<g id="a_edge8_Node000001_Node000009"><a xlink:title=" ">
<path fill="none" stroke="#63b8ff" d="M50.62,-917.1C50.82,-986.76 55.39,-1395.78 135.25,-1483 137.23,-1485.16 139.4,-1487.09 141.73,-1488.83"/>
<polygon fill="#63b8ff" stroke="#63b8ff" points="139.67,-1491.68 150.06,-1493.78 143.25,-1485.66 139.67,-1491.68"/>
</a>
</g>
</g>
<!-- Node10 -->
<g id="Node000010" class="node">
<title>Node10</title>
<g id="a_Node000010"><a xlink:href="group__ssd1309__interface__driver.html#gaa4c3a7f1ea29001192477afab6719611" target="_top" xlink:title="interface iic bus write">
<polygon fill="white" stroke="#666666" points="271.25,-1474 160.75,-1474 160.75,-1442 271.25,-1442 271.25,-1474"/>
<text xml:space="preserve" text-anchor="start" x="168.75" y="-1460.5" font-family="Helvetica,sans-Serif" font-size="10.00">ssd1309_interface_iic</text>
<text xml:space="preserve" text-anchor="middle" x="216" y="-1448.5" font-family="Helvetica,sans-Serif" font-size="10.00">_write</text>
</a>
</g>
</g>
<!-- Node1&#45;&gt;Node10 -->
<g id="edge9_Node000001_Node000010" class="edge">
<title>Node1&#45;&gt;Node10</title>
<g id="a_edge9_Node000001_Node000010"><a xlink:title=" ">
<path fill="none" stroke="#63b8ff" d="M50.85,-917.43C52.53,-984.21 64.9,-1351.69 135.25,-1433 139.4,-1437.8 144.47,-1441.69 150.01,-1444.84"/>
<polygon fill="#63b8ff" stroke="#63b8ff" points="148.5,-1448 159.03,-1449.1 151.49,-1441.67 148.5,-1448"/>
</a>
</g>
</g>
<!-- Node11 -->
<g id="Node000011" class="node">
<title>Node11</title>
<g id="a_Node000011"><a xlink:href="group__ssd1309__interface__driver.html#gaa4a2e63935daaef376d193a3fe231142" target="_top" xlink:title="interface reset gpio deinit">
<polygon fill="white" stroke="#666666" points="277.25,-1424 154.75,-1424 154.75,-1392 277.25,-1392 277.25,-1424"/>
<text xml:space="preserve" text-anchor="start" x="162.75" y="-1410.5" font-family="Helvetica,sans-Serif" font-size="10.00">ssd1309_interface_reset</text>
<text xml:space="preserve" text-anchor="middle" x="216" y="-1398.5" font-family="Helvetica,sans-Serif" font-size="10.00">_gpio_deinit</text>
</a>
</g>
</g>
<!-- Node1&#45;&gt;Node11 -->
<g id="edge10_Node000001_Node000011" class="edge">
<title>Node1&#45;&gt;Node11</title>
<g id="a_edge10_Node000001_Node000011"><a xlink:title=" ">
<path fill="none" stroke="#63b8ff" d="M51.04,-917.24C53.77,-979.79 71.08,-1310.05 135.25,-1383 138.05,-1386.18 141.25,-1388.97 144.72,-1391.4"/>
<polygon fill="#63b8ff" stroke="#63b8ff" points="142.74,-1394.3 153.15,-1396.29 146.26,-1388.24 142.74,-1394.3"/>
</a>
</g>
</g>
<!-- Node12 -->
<g id="Node000012" class="node">
<title>Node12</title>
<g id="a_Node000012"><a xlink:href="group__ssd1309__interface__driver.html#ga6cc7a643cab33d08674345487ab3a203" target="_top" xlink:title="interface reset gpio init">
<polygon fill="white" stroke="#666666" points="277.25,-1374 154.75,-1374 154.75,-1342 277.25,-1342 277.25,-1374"/>
<text xml:space="preserve" text-anchor="start" x="162.75" y="-1360.5" font-family="Helvetica,sans-Serif" font-size="10.00">ssd1309_interface_reset</text>
<text xml:space="preserve" text-anchor="middle" x="216" y="-1348.5" font-family="Helvetica,sans-Serif" font-size="10.00">_gpio_init</text>
</a>
</g>
</g>
<!-- Node1&#45;&gt;Node12 -->
<g id="edge11_Node000001_Node000012" class="edge">
<title>Node1&#45;&gt;Node12</title>
<g id="a_edge11_Node000001_Node000012"><a xlink:title=" ">
<path fill="none" stroke="#63b8ff" d="M51.27,-917.29C55.18,-976.03 77.32,-1268.47 135.25,-1333 138.08,-1336.15 141.31,-1338.92 144.8,-1341.33"/>
<polygon fill="#63b8ff" stroke="#63b8ff" points="142.84,-1344.24 153.26,-1346.19 146.33,-1338.18 142.84,-1344.24"/>
</a>
</g>
</g>
<!-- Node13 -->
<g id="Node000013" class="node">
<title>Node13</title>
<g id="a_Node000013"><a xlink:href="group__ssd1309__interface__driver.html#gaa966bab8de50a17ef65c45de12dbb3bc" target="_top" xlink:title="interface reset gpio write">
<polygon fill="white" stroke="#666666" points="277.25,-1324 154.75,-1324 154.75,-1292 277.25,-1292 277.25,-1324"/>
<text xml:space="preserve" text-anchor="start" x="162.75" y="-1310.5" font-family="Helvetica,sans-Serif" font-size="10.00">ssd1309_interface_reset</text>
<text xml:space="preserve" text-anchor="middle" x="216" y="-1298.5" font-family="Helvetica,sans-Serif" font-size="10.00">_gpio_write</text>
</a>
</g>
</g>
<!-- Node1&#45;&gt;Node13 -->
<g id="edge12_Node000001_Node000013" class="edge">
<title>Node1&#45;&gt;Node13</title>
<g id="a_edge12_Node000001_Node000013"><a xlink:title=" ">
<path fill="none" stroke="#63b8ff" d="M51.59,-917.5C56.82,-972.48 83.58,-1226.89 135.25,-1283 137.99,-1285.97 141.07,-1288.59 144.4,-1290.9"/>
<polygon fill="#63b8ff" stroke="#63b8ff" points="142.59,-1293.9 153,-1295.88 146.09,-1287.84 142.59,-1293.9"/>
</a>
</g>
</g>
<!-- Node14 -->
<g id="Node000014" class="node">
<title>Node14</title>
<g id="a_Node000014"><a xlink:href="group__ssd1309__interface__driver.html#ga2a6b0fa1a81ed38c32c3e69544b521f9" target="_top" xlink:title="interface command &amp;&amp; data gpio deinit">
<polygon fill="white" stroke="#666666" points="273.88,-1274 158.12,-1274 158.12,-1242 273.88,-1242 273.88,-1274"/>
<text xml:space="preserve" text-anchor="start" x="166.12" y="-1260.5" font-family="Helvetica,sans-Serif" font-size="10.00">ssd1309_interface_spi</text>
<text xml:space="preserve" text-anchor="middle" x="216" y="-1248.5" font-family="Helvetica,sans-Serif" font-size="10.00">_cmd_data_gpio_deinit</text>
</a>
</g>
</g>
<!-- Node1&#45;&gt;Node14 -->
<g id="edge13_Node000001_Node000014" class="edge">
<title>Node1&#45;&gt;Node14</title>
<g id="a_edge13_Node000001_Node000014"><a xlink:title=" ">
<path fill="none" stroke="#63b8ff" d="M51.96,-917.41C58.62,-967.71 89.71,-1185.13 135.25,-1233 138.83,-1236.77 142.98,-1239.97 147.46,-1242.69"/>
<polygon fill="#63b8ff" stroke="#63b8ff" points="145.85,-1245.8 156.35,-1247.23 149.03,-1239.57 145.85,-1245.8"/>
</a>
</g>
</g>
<!-- Node15 -->
<g id="Node000015" class="node">
<title>Node15</title>
<g id="a_Node000015"><a xlink:href="group__ssd1309__interface__driver.html#ga1d06686e40f5816b34769ea45b07b67a" target="_top" xlink:title="interface command &amp;&amp; data gpio init">
<polygon fill="white" stroke="#666666" points="272.75,-1224 159.25,-1224 159.25,-1192 272.75,-1192 272.75,-1224"/>
<text xml:space="preserve" text-anchor="start" x="167.25" y="-1210.5" font-family="Helvetica,sans-Serif" font-size="10.00">ssd1309_interface_spi</text>
<text xml:space="preserve" text-anchor="middle" x="216" y="-1198.5" font-family="Helvetica,sans-Serif" font-size="10.00">_cmd_data_gpio_init</text>
</a>
</g>
</g>
<!-- Node1&#45;&gt;Node15 -->
<g id="edge14_Node000001_Node000015" class="edge">
<title>Node1&#45;&gt;Node15</title>
<g id="a_edge14_Node000001_Node000015"><a xlink:title=" ">
<path fill="none" stroke="#63b8ff" d="M50.57,-917.47C50.92,-957.84 57.71,-1104.97 135.25,-1183 139.14,-1186.91 143.63,-1190.21 148.46,-1193"/>
<polygon fill="#63b8ff" stroke="#63b8ff" points="146.87,-1196.12 157.4,-1197.36 149.94,-1189.83 146.87,-1196.12"/>
</a>
</g>
</g>
<!-- Node16 -->
<g id="Node000016" class="node">
<title>Node16</title>
<g id="a_Node000016"><a xlink:href="group__ssd1309__interface__driver.html#ga900d326366a816504548584e22de4bbf" target="_top" xlink:title="interface command &amp;&amp; data gpio write">
<polygon fill="white" stroke="#666666" points="272.75,-1174 159.25,-1174 159.25,-1142 272.75,-1142 272.75,-1174"/>
<text xml:space="preserve" text-anchor="start" x="167.25" y="-1160.5" font-family="Helvetica,sans-Serif" font-size="10.00">ssd1309_interface_spi</text>
<text xml:space="preserve" text-anchor="middle" x="216" y="-1148.5" font-family="Helvetica,sans-Serif" font-size="10.00">_cmd_data_gpio_write</text>
</a>
</g>
</g>
<!-- Node1&#45;&gt;Node16 -->
<g id="edge15_Node000001_Node000016" class="edge">
<title>Node1&#45;&gt;Node16</title>
<g id="a_edge15_Node000001_Node000016"><a xlink:title=" ">
<path fill="none" stroke="#63b8ff" d="M51.36,-917.27C54.47,-952.66 69.54,-1070.78 135.25,-1133 139.25,-1136.79 143.83,-1140.01 148.71,-1142.74"/>
<polygon fill="#63b8ff" stroke="#63b8ff" points="147.19,-1145.89 157.72,-1147.03 150.2,-1139.57 147.19,-1145.89"/>
</a>
</g>
</g>
<!-- Node17 -->
<g id="Node000017" class="node">
<title>Node17</title>
<g id="a_Node000017"><a xlink:href="group__ssd1309__interface__driver.html#gaf7e413328b91658ccfade2a54e205767" target="_top" xlink:title="interface spi bus deinit">
<polygon fill="white" stroke="#666666" points="272.75,-1124 159.25,-1124 159.25,-1092 272.75,-1092 272.75,-1124"/>
<text xml:space="preserve" text-anchor="start" x="167.25" y="-1110.5" font-family="Helvetica,sans-Serif" font-size="10.00">ssd1309_interface_spi</text>
<text xml:space="preserve" text-anchor="middle" x="216" y="-1098.5" font-family="Helvetica,sans-Serif" font-size="10.00">_deinit</text>
</a>
</g>
</g>
<!-- Node1&#45;&gt;Node17 -->
<g id="edge16_Node000001_Node000017" class="edge">
<title>Node1&#45;&gt;Node17</title>
<g id="a_edge16_Node000001_Node000017"><a xlink:title=" ">
<path fill="none" stroke="#63b8ff" d="M52.62,-917.49C58.95,-947.83 81.4,-1036.42 135.25,-1083 139.35,-1086.55 143.96,-1089.6 148.84,-1092.21"/>
<polygon fill="#63b8ff" stroke="#63b8ff" points="147.23,-1095.33 157.78,-1096.36 150.18,-1088.98 147.23,-1095.33"/>
</a>
</g>
</g>
<!-- Node18 -->
<g id="Node000018" class="node">
<title>Node18</title>
<g id="a_Node000018"><a xlink:href="group__ssd1309__interface__driver.html#gade54d02538734f3fbe583b08a04e77c1" target="_top" xlink:title="interface spi bus init">
<polygon fill="white" stroke="#666666" points="281.75,-1074 150.25,-1074 150.25,-1054 281.75,-1054 281.75,-1074"/>
<text xml:space="preserve" text-anchor="middle" x="216" y="-1060.5" font-family="Helvetica,sans-Serif" font-size="10.00">ssd1309_interface_spi_init</text>
</a>
</g>
</g>
<!-- Node1&#45;&gt;Node18 -->
<g id="edge17_Node000001_Node000018" class="edge">
<title>Node1&#45;&gt;Node18</title>
<g id="a_edge17_Node000001_Node000018"><a xlink:title=" ">
<path fill="none" stroke="#63b8ff" d="M53.81,-917.22C62.4,-943.03 88.6,-1011.18 135.25,-1045 137.02,-1046.28 138.87,-1047.48 140.77,-1048.6"/>
<polygon fill="#63b8ff" stroke="#63b8ff" points="138.86,-1051.56 149.37,-1052.88 141.98,-1045.29 138.86,-1051.56"/>
</a>
</g>
</g>
<!-- Node19 -->
<g id="Node000019" class="node">
<title>Node19</title>
<g id="a_Node000019"><a xlink:href="group__ssd1309__interface__driver.html#gaae8a51a63929401cc35e37ecc21c5668" target="_top" xlink:title="interface spi bus write">
<polygon fill="white" stroke="#666666" points="272.75,-1036 159.25,-1036 159.25,-1004 272.75,-1004 272.75,-1036"/>
<text xml:space="preserve" text-anchor="start" x="167.25" y="-1022.5" font-family="Helvetica,sans-Serif" font-size="10.00">ssd1309_interface_spi</text>
<text xml:space="preserve" text-anchor="middle" x="216" y="-1010.5" font-family="Helvetica,sans-Serif" font-size="10.00">_write_cmd</text>
</a>
</g>
</g>
<!-- Node1&#45;&gt;Node19 -->
<g id="edge18_Node000001_Node000019" class="edge">
<title>Node1&#45;&gt;Node19</title>
<g id="a_edge18_Node000001_Node000019"><a xlink:title=" ">
<path fill="none" stroke="#63b8ff" d="M57.77,-917.3C70.98,-935.6 101.01,-973.8 135.25,-995 139.46,-997.61 143.96,-999.96 148.6,-1002.09"/>
<polygon fill="#63b8ff" stroke="#63b8ff" points="146.96,-1005.19 157.54,-1005.8 149.65,-998.73 146.96,-1005.19"/>
</a>
</g>
</g>
<!-- Node20 -->
<g id="Node000020" class="node">
<title>Node20</title>
<g id="a_Node000020"><a xlink:href="group__ssd1309__base__driver.html#ga4650ea7526f97e36352c3ebd3e24ab3d" target="_top" xlink:title="set the chip iic address">
<polygon fill="white" stroke="#666666" points="272.75,-986 159.25,-986 159.25,-966 272.75,-966 272.75,-986"/>
<text xml:space="preserve" text-anchor="middle" x="216" y="-972.5" font-family="Helvetica,sans-Serif" font-size="10.00">ssd1309_set_addr_pin</text>
</a>
</g>
</g>
<!-- Node1&#45;&gt;Node20 -->
<g id="edge19_Node000001_Node000020" class="edge">
<title>Node1&#45;&gt;Node20</title>
<g id="a_edge19_Node000001_Node000020"><a xlink:title=" ">
<path fill="none" stroke="#63b8ff" d="M65.2,-917.47C81.53,-928.73 109.14,-946.46 135.25,-957 140.19,-958.99 145.38,-960.81 150.66,-962.46"/>
<polygon fill="#63b8ff" stroke="#63b8ff" points="149.51,-965.77 160.09,-965.19 151.45,-959.05 149.51,-965.77"/>
</a>
</g>
</g>
<!-- Node21 -->
<g id="Node000021" class="node">
<title>Node21</title>
<g id="a_Node000021"><a xlink:href="group__ssd1309__base__driver.html#ga0cefb293b80956d98a53d7e3da4ad060" target="_top" xlink:title="set the column address range">
<polygon fill="white" stroke="#666666" points="270.12,-948 161.88,-948 161.88,-916 270.12,-916 270.12,-948"/>
<text xml:space="preserve" text-anchor="start" x="169.88" y="-934.5" font-family="Helvetica,sans-Serif" font-size="10.00">ssd1309_set_column</text>
<text xml:space="preserve" text-anchor="middle" x="216" y="-922.5" font-family="Helvetica,sans-Serif" font-size="10.00">_address_range</text>
</a>
</g>
</g>
<!-- Node1&#45;&gt;Node21 -->
<g id="edge20_Node000001_Node000021" class="edge">
<title>Node1&#45;&gt;Node21</title>
<g id="a_edge20_Node000001_Node000021"><a xlink:title=" ">
<path fill="none" stroke="#63b8ff" d="M99.5,-914.43C115.49,-916.87 133.51,-919.61 150.47,-922.19"/>
<polygon fill="#63b8ff" stroke="#63b8ff" points="149.53,-925.58 159.94,-923.63 150.58,-918.66 149.53,-925.58"/>
</a>
</g>
</g>
<!-- Node22 -->
<g id="Node000022" class="node">
<title>Node22</title>
<g id="a_Node000022"><a xlink:href="group__ssd1309__base__driver.html#gac8a568a10e0f9edf09f1c6feb7432e09" target="_top" xlink:title="set the hardware com pins">
<polygon fill="white" stroke="#666666" points="275.38,-898 156.62,-898 156.62,-866 275.38,-866 275.38,-898"/>
<text xml:space="preserve" text-anchor="start" x="164.62" y="-884.5" font-family="Helvetica,sans-Serif" font-size="10.00">ssd1309_set_com_pins</text>
<text xml:space="preserve" text-anchor="middle" x="216" y="-872.5" font-family="Helvetica,sans-Serif" font-size="10.00">_hardware_conf</text>
</a>
</g>
</g>
<!-- Node1&#45;&gt;Node22 -->
<g id="edge21_Node000001_Node000022" class="edge">
<title>Node1&#45;&gt;Node22</title>
<g id="a_edge21_Node000001_Node000022"><a xlink:title=" ">
<path fill="none" stroke="#63b8ff" d="M99.5,-899.57C113.81,-897.39 129.75,-894.97 145.11,-892.63"/>
<polygon fill="#63b8ff" stroke="#63b8ff" points="145.3,-896.14 154.66,-891.18 144.24,-889.22 145.3,-896.14"/>
</a>
</g>
</g>
<!-- Node23 -->
<g id="Node000023" class="node">
<title>Node23</title>
<g id="a_Node000023"><a xlink:href="group__ssd1309__base__driver.html#gac5dfb901e861028014aa2e1494d48020" target="_top" xlink:title="set the display contrast">
<polygon fill="white" stroke="#666666" points="272,-848 160,-848 160,-828 272,-828 272,-848"/>
<text xml:space="preserve" text-anchor="middle" x="216" y="-834.5" font-family="Helvetica,sans-Serif" font-size="10.00">ssd1309_set_contrast</text>
</a>
</g>
</g>
<!-- Node1&#45;&gt;Node23 -->
<g id="edge22_Node000001_Node000023" class="edge">
<title>Node1&#45;&gt;Node23</title>
<g id="a_edge22_Node000001_Node000023"><a xlink:title=" ">
<path fill="none" stroke="#63b8ff" d="M65.2,-896.53C81.53,-885.27 109.14,-867.54 135.25,-857 140.19,-855.01 145.38,-853.19 150.66,-851.54"/>
<polygon fill="#63b8ff" stroke="#63b8ff" points="151.45,-854.95 160.09,-848.81 149.51,-848.23 151.45,-854.95"/>
</a>
</g>
</g>
<!-- Node24 -->
<g id="Node000024" class="node">
<title>Node24</title>
<g id="a_Node000024"><a xlink:href="group__ssd1309__base__driver.html#gaa14be5d3ff0ad1880217424d4b194a0e" target="_top" xlink:title="set the deselect level">
<polygon fill="white" stroke="#666666" points="272.75,-810 159.25,-810 159.25,-778 272.75,-778 272.75,-810"/>
<text xml:space="preserve" text-anchor="start" x="167.25" y="-796.5" font-family="Helvetica,sans-Serif" font-size="10.00">ssd1309_set_deselect</text>
<text xml:space="preserve" text-anchor="middle" x="216" y="-784.5" font-family="Helvetica,sans-Serif" font-size="10.00">_level</text>
</a>
</g>
</g>
<!-- Node1&#45;&gt;Node24 -->
<g id="edge23_Node000001_Node000024" class="edge">
<title>Node1&#45;&gt;Node24</title>
<g id="a_edge23_Node000001_Node000024"><a xlink:title=" ">
<path fill="none" stroke="#63b8ff" d="M57.77,-896.7C70.98,-878.4 101.01,-840.2 135.25,-819 139.46,-816.39 143.96,-814.04 148.6,-811.91"/>
<polygon fill="#63b8ff" stroke="#63b8ff" points="149.65,-815.27 157.54,-808.2 146.96,-808.81 149.65,-815.27"/>
</a>
</g>
</g>
<!-- Node25 -->
<g id="Node000025" class="node">
<title>Node25</title>
<g id="a_Node000025"><a xlink:href="group__ssd1309__base__driver.html#ga3e7927240cc63129df0855c6bdb5bba0" target="_top" xlink:title="enable or disable the display">
<polygon fill="white" stroke="#666666" points="269.75,-760 162.25,-760 162.25,-740 269.75,-740 269.75,-760"/>
<text xml:space="preserve" text-anchor="middle" x="216" y="-746.5" font-family="Helvetica,sans-Serif" font-size="10.00">ssd1309_set_display</text>
</a>
</g>
</g>
<!-- Node1&#45;&gt;Node25 -->
<g id="edge24_Node000001_Node000025" class="edge">
<title>Node1&#45;&gt;Node25</title>
<g id="a_edge24_Node000001_Node000025"><a xlink:title=" ">
<path fill="none" stroke="#63b8ff" d="M53.81,-896.78C62.4,-870.97 88.6,-802.82 135.25,-769 140.15,-765.45 145.62,-762.55 151.33,-760.19"/>
<polygon fill="#63b8ff" stroke="#63b8ff" points="152.12,-763.63 160.39,-757 149.8,-757.02 152.12,-763.63"/>
</a>
</g>
</g>
<!-- Node26 -->
<g id="Node000026" class="node">
<title>Node26</title>
<g id="a_Node000026"><a xlink:href="group__ssd1309__base__driver.html#ga2a5d4c315562b42c63c7140130b6ac87" target="_top" xlink:title="set the display clock">
<polygon fill="white" stroke="#666666" points="269.75,-722 162.25,-722 162.25,-690 269.75,-690 269.75,-722"/>
<text xml:space="preserve" text-anchor="start" x="170.25" y="-708.5" font-family="Helvetica,sans-Serif" font-size="10.00">ssd1309_set_display</text>
<text xml:space="preserve" text-anchor="middle" x="216" y="-696.5" font-family="Helvetica,sans-Serif" font-size="10.00">_clock</text>
</a>
</g>
</g>
<!-- Node1&#45;&gt;Node26 -->
<g id="edge25_Node000001_Node000026" class="edge">
<title>Node1&#45;&gt;Node26</title>
<g id="a_edge25_Node000001_Node000026"><a xlink:title=" ">
<path fill="none" stroke="#63b8ff" d="M52.62,-896.51C58.95,-866.17 81.4,-777.58 135.25,-731 140.17,-726.74 145.81,-723.21 151.78,-720.28"/>
<polygon fill="#63b8ff" stroke="#63b8ff" points="152.83,-723.63 160.65,-716.49 150.08,-717.2 152.83,-723.63"/>
</a>
</g>
</g>
<!-- Node27 -->
<g id="Node000027" class="node">
<title>Node27</title>
<g id="a_Node000027"><a xlink:href="group__ssd1309__base__driver.html#gab3a0647377988fc41f3a627cbf1cae61" target="_top" xlink:title="set the display mode">
<polygon fill="white" stroke="#666666" points="284.38,-672 147.62,-672 147.62,-652 284.38,-652 284.38,-672"/>
<text xml:space="preserve" text-anchor="middle" x="216" y="-658.5" font-family="Helvetica,sans-Serif" font-size="10.00">ssd1309_set_display_mode</text>
</a>
</g>
</g>
<!-- Node1&#45;&gt;Node27 -->
<g id="edge26_Node000001_Node000027" class="edge">
<title>Node1&#45;&gt;Node27</title>
<g id="a_edge26_Node000001_Node000027"><a xlink:title=" ">
<path fill="none" stroke="#63b8ff" d="M51.21,-896.56C53.8,-860.61 67.41,-740.89 135.25,-681 136.33,-680.05 137.45,-679.14 138.6,-678.27"/>
<polygon fill="#63b8ff" stroke="#63b8ff" points="140.07,-681.48 146.76,-673.26 136.41,-675.52 140.07,-681.48"/>
</a>
</g>
</g>
<!-- Node28 -->
<g id="Node000028" class="node">
<title>Node28</title>
<g id="a_Node000028"><a xlink:href="group__ssd1309__base__driver.html#ga721d51e55d8798779ee22b1cd9574b55" target="_top" xlink:title="set the display offset">
<polygon fill="white" stroke="#666666" points="269.75,-634 162.25,-634 162.25,-602 269.75,-602 269.75,-634"/>
<text xml:space="preserve" text-anchor="start" x="170.25" y="-620.5" font-family="Helvetica,sans-Serif" font-size="10.00">ssd1309_set_display</text>
<text xml:space="preserve" text-anchor="middle" x="216" y="-608.5" font-family="Helvetica,sans-Serif" font-size="10.00">_offset</text>
</a>
</g>
</g>
<!-- Node1&#45;&gt;Node28 -->
<g id="edge27_Node000001_Node000028" class="edge">
<title>Node1&#45;&gt;Node28</title>
<g id="a_edge27_Node000001_Node000028"><a xlink:title=" ">
<path fill="none" stroke="#63b8ff" d="M50.73,-896.71C51.71,-857.68 60.48,-717.29 135.25,-643 140,-638.28 145.62,-634.45 151.66,-631.35"/>
<polygon fill="#63b8ff" stroke="#63b8ff" points="152.97,-634.59 160.73,-627.37 150.16,-628.18 152.97,-634.59"/>
</a>
</g>
</g>
<!-- Node29 -->
<g id="Node000029" class="node">
<title>Node29</title>
<g id="a_Node000029"><a xlink:href="group__ssd1309__base__driver.html#ga9c01a2d4828319ded2d2fd6aad03eb88" target="_top" xlink:title="set the display start line">
<polygon fill="white" stroke="#666666" points="269.75,-584 162.25,-584 162.25,-552 269.75,-552 269.75,-584"/>
<text xml:space="preserve" text-anchor="start" x="170.25" y="-570.5" font-family="Helvetica,sans-Serif" font-size="10.00">ssd1309_set_display</text>
<text xml:space="preserve" text-anchor="middle" x="216" y="-558.5" font-family="Helvetica,sans-Serif" font-size="10.00">_start_line</text>
</a>
</g>
</g>
<!-- Node1&#45;&gt;Node29 -->
<g id="edge28_Node000001_Node000029" class="edge">
<title>Node1&#45;&gt;Node29</title>
<g id="a_edge28_Node000001_Node000029"><a xlink:title=" ">
<path fill="none" stroke="#63b8ff" d="M50.11,-896.64C48.55,-853.15 48.44,-683.41 135.25,-593 139.89,-588.17 145.44,-584.27 151.43,-581.12"/>
<polygon fill="#63b8ff" stroke="#63b8ff" points="152.74,-584.37 160.46,-577.12 149.9,-577.98 152.74,-584.37"/>
</a>
</g>
</g>
<!-- Node30 -->
<g id="Node000030" class="node">
<title>Node30</title>
<g id="a_Node000030"><a xlink:href="group__ssd1309__base__driver.html#ga8ba5abc7b722cc3eeec9069e57200639" target="_top" xlink:title="enable or disable the entire display">
<polygon fill="white" stroke="#666666" points="266.38,-534 165.62,-534 165.62,-502 266.38,-502 266.38,-534"/>
<text xml:space="preserve" text-anchor="start" x="173.62" y="-520.5" font-family="Helvetica,sans-Serif" font-size="10.00">ssd1309_set_entire</text>
<text xml:space="preserve" text-anchor="middle" x="216" y="-508.5" font-family="Helvetica,sans-Serif" font-size="10.00">_display</text>
</a>
</g>
</g>
<!-- Node1&#45;&gt;Node30 -->
<g id="edge29_Node000001_Node000030" class="edge">
<title>Node1&#45;&gt;Node30</title>
<g id="a_edge29_Node000001_Node000030"><a xlink:title=" ">
<path fill="none" stroke="#63b8ff" d="M51.64,-896.84C57.12,-843.59 84.96,-597.23 135.25,-543 140.68,-537.14 147.47,-532.65 154.77,-529.2"/>
<polygon fill="#63b8ff" stroke="#63b8ff" points="155.95,-532.5 163.95,-525.55 153.36,-526 155.95,-532.5"/>
</a>
</g>
</g>
<!-- Node31 -->
<g id="Node000031" class="node">
<title>Node31</title>
<g id="a_Node000031"><a xlink:href="group__ssd1309__base__driver.html#ga701a7db34a52a311c30a4a1346bd984f" target="_top" xlink:title="set gpio">
<polygon fill="white" stroke="#666666" points="263.38,-484 168.62,-484 168.62,-464 263.38,-464 263.38,-484"/>
<text xml:space="preserve" text-anchor="middle" x="216" y="-470.5" font-family="Helvetica,sans-Serif" font-size="10.00">ssd1309_set_gpio</text>
</a>
</g>
</g>
<!-- Node1&#45;&gt;Node31 -->
<g id="edge30_Node000001_Node000031" class="edge">
<title>Node1&#45;&gt;Node31</title>
<g id="a_edge30_Node000001_Node000031"><a xlink:title=" ">
<path fill="none" stroke="#63b8ff" d="M51.28,-896.55C55.11,-838.25 76.69,-553.48 135.25,-493 141.31,-486.74 149.03,-482.39 157.26,-479.39"/>
<polygon fill="#63b8ff" stroke="#63b8ff" points="158.22,-482.76 166.85,-476.61 156.27,-476.04 158.22,-482.76"/>
</a>
</g>
</g>
<!-- Node32 -->
<g id="Node000032" class="node">
<title>Node32</title>
<g id="a_Node000032"><a xlink:href="group__ssd1309__base__driver.html#ga3ae4e87ae6066f6aa194ac157e1e1306" target="_top" xlink:title="set the high column start address">
<polygon fill="white" stroke="#666666" points="281.75,-446 150.25,-446 150.25,-414 281.75,-414 281.75,-446"/>
<text xml:space="preserve" text-anchor="start" x="158.25" y="-432.5" font-family="Helvetica,sans-Serif" font-size="10.00">ssd1309_set_high_column</text>
<text xml:space="preserve" text-anchor="middle" x="216" y="-420.5" font-family="Helvetica,sans-Serif" font-size="10.00">_start_address</text>
</a>
</g>
</g>
<!-- Node1&#45;&gt;Node32 -->
<g id="edge31_Node000001_Node000032" class="edge">
<title>Node1&#45;&gt;Node32</title>
<g id="a_edge31_Node000001_Node000032"><a xlink:title=" ">
<path fill="none" stroke="#63b8ff" d="M51.14,-896.88C54.39,-836.5 74.03,-523.96 135.25,-455 136.93,-453.1 138.76,-451.35 140.7,-449.73"/>
<polygon fill="#63b8ff" stroke="#63b8ff" points="142.35,-452.84 148.6,-444.29 138.38,-447.08 142.35,-452.84"/>
</a>
</g>
</g>
<!-- Node33 -->
<g id="Node000033" class="node">
<title>Node33</title>
<g id="a_Node000033"><a xlink:href="group__ssd1309__base__driver.html#ga8b7ad4864fec63f7dce63e65ec10cc38" target="_top" xlink:title="set the chip interface">
<polygon fill="white" stroke="#666666" points="273.12,-396 158.88,-396 158.88,-376 273.12,-376 273.12,-396"/>
<text xml:space="preserve" text-anchor="middle" x="216" y="-382.5" font-family="Helvetica,sans-Serif" font-size="10.00">ssd1309_set_interface</text>
</a>
</g>
</g>
<!-- Node1&#45;&gt;Node33 -->
<g id="edge32_Node000001_Node000033" class="edge">
<title>Node1&#45;&gt;Node33</title>
<g id="a_edge32_Node000001_Node000033"><a xlink:title=" ">
<path fill="none" stroke="#63b8ff" d="M50.87,-896.57C52.62,-831.33 65.22,-479.88 135.25,-405 139,-400.99 143.44,-397.75 148.26,-395.15"/>
<polygon fill="#63b8ff" stroke="#63b8ff" points="149.45,-398.46 157.23,-391.27 146.66,-392.03 149.45,-398.46"/>
</a>
</g>
</g>
<!-- Node34 -->
<g id="Node000034" class="node">
<title>Node34</title>
<g id="a_Node000034"><a xlink:href="group__ssd1309__base__driver.html#gaa1b674edb792cdbe3292e4b22503df03" target="_top" xlink:title="set the low column start address">
<polygon fill="white" stroke="#666666" points="280.25,-358 151.75,-358 151.75,-326 280.25,-326 280.25,-358"/>
<text xml:space="preserve" text-anchor="start" x="159.75" y="-344.5" font-family="Helvetica,sans-Serif" font-size="10.00">ssd1309_set_low_column</text>
<text xml:space="preserve" text-anchor="middle" x="216" y="-332.5" font-family="Helvetica,sans-Serif" font-size="10.00">_start_address</text>
</a>
</g>
</g>
<!-- Node1&#45;&gt;Node34 -->
<g id="edge33_Node000001_Node000034" class="edge">
<title>Node1&#45;&gt;Node34</title>
<g id="a_edge33_Node000001_Node000034"><a xlink:title=" ">
<path fill="none" stroke="#63b8ff" d="M50.8,-896.73C52.18,-829.38 63.09,-450.75 135.25,-367 137.31,-364.61 139.6,-362.44 142.05,-360.48"/>
<polygon fill="#63b8ff" stroke="#63b8ff" points="143.89,-363.47 150.35,-355.07 140.06,-357.61 143.89,-363.47"/>
</a>
</g>
</g>
<!-- Node35 -->
<g id="Node000035" class="node">
<title>Node35</title>
<g id="a_Node000035"><a xlink:href="group__ssd1309__base__driver.html#ga095443b32ed4bddc9638923a5d4796d2" target="_top" xlink:title="enable or disable mcu interface lock">
<polygon fill="white" stroke="#666666" points="296.75,-308 135.25,-308 135.25,-288 296.75,-288 296.75,-308"/>
<text xml:space="preserve" text-anchor="middle" x="216" y="-294.5" font-family="Helvetica,sans-Serif" font-size="10.00">ssd1309_set_mcu_interface_lock</text>
</a>
</g>
</g>
<!-- Node1&#45;&gt;Node35 -->
<g id="edge34_Node000001_Node000035" class="edge">
<title>Node1&#45;&gt;Node35</title>
<g id="a_edge34_Node000001_Node000035"><a xlink:title=" ">
<path fill="none" stroke="#63b8ff" d="M50.58,-896.66C50.52,-825.32 53.64,-406.43 135.25,-317 135.73,-316.47 136.22,-315.96 136.72,-315.46"/>
<polygon fill="#63b8ff" stroke="#63b8ff" points="138.79,-318.29 144.53,-309.39 134.49,-312.76 138.79,-318.29"/>
</a>
</g>
</g>
<!-- Node36 -->
<g id="Node000036" class="node">
<title>Node36</title>
<g id="a_Node000036"><a xlink:href="group__ssd1309__base__driver.html#ga64c24f88c5ae9556b832aa345ced03bf" target="_top" xlink:title="set the memory addressing mode">
<polygon fill="white" stroke="#666666" points="272,-270 160,-270 160,-238 272,-238 272,-270"/>
<text xml:space="preserve" text-anchor="start" x="168" y="-256.5" font-family="Helvetica,sans-Serif" font-size="10.00">ssd1309_set_memory</text>
<text xml:space="preserve" text-anchor="middle" x="216" y="-244.5" font-family="Helvetica,sans-Serif" font-size="10.00">_addressing_mode</text>
</a>
</g>
</g>
<!-- Node1&#45;&gt;Node36 -->
<g id="edge35_Node000001_Node000036" class="edge">
<title>Node1&#45;&gt;Node36</title>
<g id="a_edge35_Node000001_Node000036"><a xlink:title=" ">
<path fill="none" stroke="#63b8ff" d="M50.56,-896.54C50.28,-822.51 52.1,-377.62 135.25,-279 139.28,-274.22 144.22,-270.33 149.64,-267.19"/>
<polygon fill="#63b8ff" stroke="#63b8ff" points="150.98,-270.43 158.47,-262.93 147.95,-264.12 150.98,-270.43"/>
</a>
</g>
</g>
<!-- Node37 -->
<g id="Node000037" class="node">
<title>Node37</title>
<g id="a_Node000037"><a xlink:href="group__ssd1309__base__driver.html#gabac0f4fb41b707b44e147873534a7a99" target="_top" xlink:title="set the multiplex ratio">
<polygon fill="white" stroke="#666666" points="273.88,-220 158.12,-220 158.12,-188 273.88,-188 273.88,-220"/>
<text xml:space="preserve" text-anchor="start" x="166.12" y="-206.5" font-family="Helvetica,sans-Serif" font-size="10.00">ssd1309_set_multiplex</text>
<text xml:space="preserve" text-anchor="middle" x="216" y="-194.5" font-family="Helvetica,sans-Serif" font-size="10.00">_ratio</text>
</a>
</g>
</g>
<!-- Node1&#45;&gt;Node37 -->
<g id="edge36_Node000001_Node000037" class="edge">
<title>Node1&#45;&gt;Node37</title>
<g id="a_edge36_Node000001_Node000037"><a xlink:title=" ">
<path fill="none" stroke="#63b8ff" d="M50.44,-896.72C49.3,-819.93 45.74,-336.23 135.25,-229 138.78,-224.77 143.03,-221.24 147.69,-218.3"/>
<polygon fill="#63b8ff" stroke="#63b8ff" points="149.16,-221.48 156.41,-213.76 145.92,-215.27 149.16,-221.48"/>
</a>
</g>
</g>
<!-- Node38 -->
<g id="Node000038" class="node">
<title>Node38</title>
<g id="a_Node000038"><a xlink:href="group__ssd1309__base__driver.html#gaaec51a06d12a91873ba2db69c547a56c" target="_top" xlink:title="set the page address range">
<polygon fill="white" stroke="#666666" points="284.75,-170 147.25,-170 147.25,-138 284.75,-138 284.75,-170"/>
<text xml:space="preserve" text-anchor="start" x="155.25" y="-156.5" font-family="Helvetica,sans-Serif" font-size="10.00">ssd1309_set_page_address</text>
<text xml:space="preserve" text-anchor="middle" x="216" y="-144.5" font-family="Helvetica,sans-Serif" font-size="10.00">_range</text>
</a>
</g>
</g>
<!-- Node1&#45;&gt;Node38 -->
<g id="edge37_Node000001_Node000038" class="edge">
<title>Node1&#45;&gt;Node38</title>
<g id="a_edge37_Node000001_Node000038"><a xlink:title=" ">
<path fill="none" stroke="#63b8ff" d="M51.16,-896.52C55.59,-811.57 87.18,-237.08 135.25,-179 136.19,-177.87 137.17,-176.79 138.21,-175.75"/>
<polygon fill="#63b8ff" stroke="#63b8ff" points="140.14,-178.69 145.74,-169.69 135.75,-173.24 140.14,-178.69"/>
</a>
</g>
</g>
<!-- Node39 -->
<g id="Node000039" class="node">
<title>Node39</title>
<g id="a_Node000039"><a xlink:href="group__ssd1309__base__driver.html#gaecfff81cb15938295aec668a81f64f37" target="_top" xlink:title="set the pre charge period">
<polygon fill="white" stroke="#666666" points="275.75,-120 156.25,-120 156.25,-88 275.75,-88 275.75,-120"/>
<text xml:space="preserve" text-anchor="start" x="164.25" y="-106.5" font-family="Helvetica,sans-Serif" font-size="10.00">ssd1309_set_precharge</text>
<text xml:space="preserve" text-anchor="middle" x="216" y="-94.5" font-family="Helvetica,sans-Serif" font-size="10.00">_period</text>
</a>
</g>
</g>
<!-- Node1&#45;&gt;Node39 -->
<g id="edge38_Node000001_Node000039" class="edge">
<title>Node1&#45;&gt;Node39</title>
<g id="a_edge38_Node000001_Node000039"><a xlink:title=" ">
<path fill="none" stroke="#63b8ff" d="M51.07,-896.65C54.95,-808.93 83.99,-191.4 135.25,-129 138.36,-125.22 142.03,-122 146.07,-119.25"/>
<polygon fill="#63b8ff" stroke="#63b8ff" points="147.7,-122.35 154.73,-114.43 144.29,-116.24 147.7,-122.35"/>
</a>
</g>
</g>
<!-- Node40 -->
<g id="Node000040" class="node">
<title>Node40</title>
<g id="a_Node000040"><a xlink:href="group__ssd1309__base__driver.html#ga9b3eb7515138d1c271c0c2649d3d866a" target="_top" xlink:title="set the scan direction">
<polygon fill="white" stroke="#666666" points="285.88,-70 146.12,-70 146.12,-50 285.88,-50 285.88,-70"/>
<text xml:space="preserve" text-anchor="middle" x="216" y="-56.5" font-family="Helvetica,sans-Serif" font-size="10.00">ssd1309_set_scan_direction</text>
</a>
</g>
</g>
<!-- Node1&#45;&gt;Node40 -->
<g id="edge39_Node000001_Node000040" class="edge">
<title>Node1&#45;&gt;Node40</title>
<g id="a_edge39_Node000001_Node000040"><a xlink:title=" ">
<path fill="none" stroke="#63b8ff" d="M50.97,-896.54C54.09,-805.14 78.54,-143.74 135.25,-79 135.83,-78.34 136.43,-77.7 137.05,-77.07"/>
<polygon fill="#63b8ff" stroke="#63b8ff" points="139.04,-79.96 144.74,-71.03 134.71,-74.46 139.04,-79.96"/>
</a>
</g>
</g>
<!-- Node41 -->
<g id="Node000041" class="node">
<title>Node41</title>
<g id="a_Node000041"><a xlink:href="group__ssd1309__base__driver.html#gaf741216335740397f4eeb033a4cb7789" target="_top" xlink:title="set the segment remap">
<polygon fill="white" stroke="#666666" points="273.12,-32 158.88,-32 158.88,0 273.12,0 273.12,-32"/>
<text xml:space="preserve" text-anchor="start" x="166.88" y="-18.5" font-family="Helvetica,sans-Serif" font-size="10.00">ssd1309_set_segment</text>
<text xml:space="preserve" text-anchor="middle" x="216" y="-6.5" font-family="Helvetica,sans-Serif" font-size="10.00">_remap</text>
</a>
</g>
</g>
<!-- Node1&#45;&gt;Node41 -->
<g id="edge40_Node000001_Node000041" class="edge">
<title>Node1&#45;&gt;Node41</title>
<g id="a_edge40_Node000001_Node000041"><a xlink:title=" ">
<path fill="none" stroke="#63b8ff" d="M50.95,-896.69C53.98,-803.66 78.4,-110.98 135.25,-41 138.93,-36.47 143.42,-32.75 148.38,-29.69"/>
<polygon fill="#63b8ff" stroke="#63b8ff" points="149.72,-32.93 157.05,-25.28 146.55,-26.69 149.72,-32.93"/>
</a>
</g>
</g>
</g>
</svg>
